<svg width="143" height="30" viewBox="0 0 143 30" fill="none" xmlns="http://www.w3.org/2000/svg">
<g id="Clip path group">
<mask id="mask0_2_123" style="mask-type:luminance" maskUnits="userSpaceOnUse" x="0" y="0" width="143" height="30">
<g id="clip0">
<path id="Vector" d="M142.893 0.0117569H0.798279V29.2925H142.893V0.0117569Z" fill="white"/>
</g>
</mask>
<g mask="url(#mask0_2_123)">
<g id="Group">
<path id="Vector_2" d="M39.7053 8.14152C38.523 8.11603 37.3515 8.38022 36.287 8.9125C35.2229 9.44474 34.2953 10.2299 33.5813 11.2037V0.0117569H28.9654V28.6962H33.3846V25.9864C34.0115 26.9737 34.8776 27.7743 35.8967 28.3091C36.9157 28.8439 38.0522 29.0942 39.1937 29.0349C44.0326 29.0349 47.2583 25.1328 47.2583 18.5205C47.2583 11.9083 44.308 8.14152 39.7053 8.14152ZM38.0529 25.1191C35.1418 25.1191 33.4503 22.6531 33.4503 18.3444C33.4503 14.4963 35.4172 12.0574 38.2102 12.0574C41.0033 12.0574 42.4588 14.5369 42.4588 18.6018C42.4588 22.897 40.7674 25.1191 38.0529 25.1191Z" fill="#F8F6E9"/>
<path id="Vector_3" d="M11.2886 0.0117569L0.798279 28.6962H6.18762L8.43024 21.9215H19.406L21.6088 28.6962H27.0247L16.8751 0.0117569H11.2886ZM9.64958 17.9379C12.0886 10.8514 13.0721 8.06024 13.9115 5.17417C15.2228 9.361 16.534 13.3039 18.1207 17.9379H9.64958Z" fill="#F8F6E9"/>
<path id="Vector_4" d="M122.292 25.2953C119.263 25.2953 117.453 22.9377 117.453 18.5205C117.453 14.0085 119.512 11.9354 122.187 11.9354C124.036 11.9354 125.453 12.8297 126.003 15.5125L130.147 14.0492C129.754 12.2308 128.745 10.6174 127.303 9.49945C125.86 8.38156 124.078 7.83274 122.279 7.95183C116.417 7.95183 112.72 12.0167 112.72 18.6018C112.72 25.1869 116.339 29.3332 122.043 29.3332C123.842 29.4517 125.627 28.9436 127.113 27.8895C128.599 26.8358 129.699 25.2971 130.239 23.5203L126.095 22.057C125.977 22.9945 125.519 23.8507 124.812 24.452C124.106 25.0533 123.205 25.3549 122.292 25.2953Z" fill="#F8F6E9"/>
<path id="Vector_5" d="M109.638 23.2493V15.9054C109.638 12.7348 109.218 11.0682 107.999 9.87587C107.195 9.16722 106.263 8.63003 105.257 8.29514C104.251 7.96028 103.191 7.83439 102.137 7.92471C97.1278 7.92471 93.9678 10.3637 93.6529 14.6995L98.0721 15.1466C98.0651 14.6591 98.1591 14.1758 98.3475 13.7287C98.5359 13.2816 98.8144 12.8813 99.1642 12.5543C99.5141 12.2272 99.9279 11.9811 100.377 11.8324C100.826 11.6836 101.301 11.6356 101.77 11.6915C102.751 11.6056 103.727 11.911 104.498 12.5451C104.774 12.8792 104.983 13.2672 105.111 13.6862C105.239 14.1052 105.285 14.5465 105.245 14.9841V16.0816C102.24 16.1874 99.2666 16.7489 96.4198 17.7482C95.3455 18.1466 94.42 18.8848 93.7752 19.8578C93.1301 20.8307 92.7984 21.989 92.8267 23.168C92.8267 26.7859 95.3577 29.1162 98.9374 29.1162C100.149 29.1787 101.359 28.9508 102.471 28.4499C103.583 27.9494 104.569 27.1897 105.35 26.2302C105.783 28.2492 107.16 28.9403 109.625 28.9403C110.341 28.9548 111.055 28.8446 111.736 28.615V25.5798C109.966 25.9052 109.638 24.8346 109.638 23.2493ZM105.245 20.1871C105.265 21.3199 104.969 22.4348 104.393 23.3984C103.938 24.0783 103.325 24.6285 102.61 24.998C101.894 25.3675 101.1 25.5444 100.301 25.5119C98.2427 25.5119 97.2984 24.4146 97.2984 22.9512C97.2795 22.4002 97.4361 21.858 97.7439 21.4077C98.0518 20.9573 98.4943 20.6238 99.0031 20.4581C101.008 19.6955 103.122 19.2834 105.258 19.2386L105.245 20.1871Z" fill="#F8F6E9"/>
<path id="Vector_6" d="M61.3025 14.3743L64.7253 11.9761C63.8974 10.6597 62.7494 9.59131 61.3962 8.8779C60.043 8.16446 58.5318 7.83108 57.0148 7.91117C52.1629 7.91117 49.4219 10.8514 49.4219 14.0221C49.4219 17.1927 51.3497 18.9406 54.379 19.9161L56.464 20.6072C59.4143 21.5827 60.0832 22.1518 60.0832 23.4932C60.0832 24.8346 58.9816 25.6206 56.9753 25.6206C55.9163 25.6246 54.8784 25.3137 53.9855 24.7251C53.0925 24.1365 52.3827 23.295 51.9399 22.3009L48.3469 24.7398C49.2503 26.1786 50.4969 27.3532 51.9665 28.1506C53.4364 28.9479 55.08 29.3412 56.7394 29.2924C61.6174 29.2924 64.6072 26.5826 64.6072 22.8293C64.6072 19.5774 62.6403 17.9108 59.1784 16.7726L57.1849 16.1223C54.6673 15.3093 54.0379 14.7673 54.0379 13.5207C54.0379 12.2742 54.9822 11.5154 56.949 11.5154C57.8598 11.5286 58.7492 11.8029 59.5177 12.3077C60.2866 12.8125 60.9045 13.5279 61.3025 14.3743Z" fill="#F8F6E9"/>
<path id="Vector_7" d="M140.991 25.2548C139.575 25.2548 138.998 24.523 138.998 22.4364V12.2877H142.801V8.48028H138.998V1.86805H134.422L134.343 8.48028H131.262V12.2877H134.343V23.3713C134.198 24.8891 134.589 26.41 135.445 27.653C135.964 28.1943 136.594 28.6081 137.288 28.8638C137.983 29.1194 138.724 29.2104 139.457 29.1299C140.617 29.1194 141.77 28.9649 142.893 28.6691V24.8888C142.284 25.1194 141.641 25.2433 140.991 25.2548Z" fill="#F8F6E9"/>
<path id="Vector_8" d="M74.0488 22.4364V12.2877H77.8386V8.48028H74.0488V1.86805H69.4723L69.3934 8.48028H66.3644V12.2877H69.4458V23.3713C69.3007 24.8891 69.6918 26.41 70.5473 27.653C71.0663 28.1943 71.6964 28.6081 72.3909 28.8638C73.0856 29.1194 73.8269 29.2104 74.5601 29.1299C75.719 29.1194 76.8726 28.9649 77.9958 28.6691V24.8888C77.386 25.1194 76.7433 25.2433 76.0943 25.2548C74.6258 25.2548 74.0488 24.523 74.0488 22.4364Z" fill="#F8F6E9"/>
<path id="Vector_9" d="M84.854 11.6102V8.48028H80.4478V28.8046H85.0637V19.32C84.932 17.7055 85.2696 16.0871 86.0342 14.6724C86.4955 13.9802 87.1285 13.4289 87.8666 13.0761C88.6047 12.7233 89.4211 12.582 90.2305 12.6671C90.8033 12.6709 91.3726 12.7576 91.9219 12.9246V8.48028C91.3757 8.29944 90.804 8.21245 90.2305 8.22285C89.109 8.16529 87.9966 8.45753 87.0376 9.0616C86.079 9.66567 85.3182 10.5536 84.854 11.6102Z" fill="#F8F6E9"/>
</g>
</g>
</g>
</svg>
