<svg width="168" height="51" viewBox="0 0 168 51" fill="none" xmlns="http://www.w3.org/2000/svg">
<g id="Clip path group">
<mask id="mask0_2_143" style="mask-type:luminance" maskUnits="userSpaceOnUse" x="0" y="0" width="168" height="51">
<g id="clip0">
<path id="Vector" d="M167.945 0H0V51H167.945V0Z" fill="white"/>
</g>
</mask>
<g mask="url(#mask0_2_143)">
<g id="Group">
<path id="Vector_2" fill-rule="evenodd" clip-rule="evenodd" d="M104.19 39.8834C94.4301 47.1325 80.2843 51 68.105 51C51.0274 51 35.6532 44.6353 24.0223 34.0491C23.1085 33.2167 23.9273 32.0822 25.0239 32.7305C37.5761 40.0899 53.0964 44.5173 69.1285 44.5173C79.9406 44.5173 91.8348 42.2631 102.771 37.5852C104.424 36.878 105.805 38.6754 104.19 39.8834Z" fill="#F8F6E9"/>
<path id="Vector_3" fill-rule="evenodd" clip-rule="evenodd" d="M108.247 35.2057C107.004 33.5998 100.001 34.4469 96.8573 34.8226C95.8995 34.9405 95.7533 34.1007 96.6162 33.4966C102.194 29.5407 111.347 30.6825 112.414 32.0085C113.482 33.3419 112.136 42.5871 106.895 46.9997C106.091 47.6776 105.323 47.3167 105.681 46.4178C106.858 43.4566 109.497 36.8192 108.247 35.2057Z" fill="#F8F6E9"/>
<path id="Vector_4" fill-rule="evenodd" clip-rule="evenodd" d="M97.0766 5.56931V1.72386C97.0766 1.14189 97.5152 0.75145 98.0417 0.75145H115.126C115.675 0.75145 116.113 1.14926 116.113 1.72386V5.01681C116.106 5.56931 115.645 6.29124 114.827 7.43308L105.974 20.1702C109.263 20.0892 112.736 20.5827 115.718 22.2771C116.391 22.6602 116.574 23.22 116.625 23.7725V27.8758C116.625 28.4357 116.011 29.0913 115.368 28.7525C110.111 25.9752 103.13 25.6732 97.3177 28.7819C96.7255 29.1061 96.1041 28.4578 96.1041 27.8979V24.0009C96.1041 23.3747 96.1115 22.3066 96.7329 21.3562L106.99 6.53434H98.0635C97.5152 6.53434 97.0766 6.14391 97.0766 5.56931Z" fill="#F8F6E9"/>
<path id="Vector_5" fill-rule="evenodd" clip-rule="evenodd" d="M34.7543 29.5628H29.5565C29.0594 29.526 28.6646 29.1503 28.6281 28.6714V1.79016C28.6281 1.25239 29.074 0.825114 29.6296 0.825114H34.4765C34.9809 0.8472 35.383 1.23765 35.4195 1.72385V5.2378H35.5144C36.7794 1.84172 39.1553 0.257874 42.3571 0.257874C45.6106 0.257874 47.6428 1.84172 49.1049 5.2378C50.3624 1.84172 53.2209 0.257874 56.2839 0.257874C58.4623 0.257874 60.8455 1.16398 62.3002 3.1972C63.9451 5.4588 63.6091 8.74437 63.6091 11.6248L63.6017 28.5904C63.6017 29.1282 63.1557 29.5628 62.6 29.5628H57.4096C56.8905 29.526 56.474 29.1061 56.474 28.5904V14.3431C56.474 13.2086 56.5763 10.3798 56.3278 9.30424C55.9401 7.49937 54.7779 6.99107 53.2718 6.99107C52.0146 6.99107 50.6984 7.83824 50.1649 9.19374C49.6314 10.5492 49.6823 12.8182 49.6823 14.3431V28.5904C49.6823 29.1282 49.2363 29.5628 48.681 29.5628H43.4902C42.9641 29.526 42.5546 29.1061 42.5546 28.5904L42.5472 14.3431C42.5472 11.3448 43.0372 6.93214 39.3454 6.93214C35.6097 6.93214 35.7559 11.2343 35.7559 14.3431V28.5904C35.7559 29.1282 35.3099 29.5628 34.7543 29.5628Z" fill="#F8F6E9"/>
<path id="Vector_6" fill-rule="evenodd" clip-rule="evenodd" d="M130.822 0.257874C138.535 0.257874 142.709 6.93214 142.709 15.4186C142.709 23.6178 138.096 30.1227 130.822 30.1227C123.248 30.1227 119.125 23.4484 119.125 15.1313C119.125 6.7627 123.299 0.257874 130.822 0.257874ZM130.866 5.7461C127.035 5.7461 126.794 11.0059 126.794 14.2841C126.794 17.5697 126.743 24.5828 130.822 24.5828C134.85 24.5828 135.04 18.9252 135.04 15.4776C135.04 13.2086 134.945 10.4976 134.265 8.34657C133.681 6.4754 132.518 5.7461 130.866 5.7461Z" fill="#F8F6E9"/>
<path id="Vector_7" fill-rule="evenodd" clip-rule="evenodd" d="M152.71 29.5628H147.534C147.015 29.526 146.598 29.1061 146.598 28.5904L146.591 1.70175C146.635 1.20818 147.066 0.825114 147.593 0.825114H152.41C152.863 0.8472 153.236 1.15662 153.339 1.57652V5.68717H153.434C154.888 2.01116 156.928 0.257874 160.517 0.257874C162.85 0.257874 165.123 1.10505 166.585 3.42557C167.945 5.57667 167.945 9.19374 167.945 11.7942V28.7156C167.886 29.1871 167.455 29.5628 166.944 29.5628H161.731C161.256 29.526 160.861 29.1724 160.81 28.7156V14.1147C160.81 11.1754 161.146 6.8732 157.557 6.8732C156.292 6.8732 155.13 7.72774 154.552 9.02431C153.821 10.6671 153.726 12.3025 153.726 14.1147V28.5904C153.719 29.1282 153.266 29.5628 152.71 29.5628Z" fill="#F8F6E9"/>
<path id="Vector_8" fill-rule="evenodd" clip-rule="evenodd" d="M83.457 16.7225C83.457 18.7631 83.5083 20.4648 82.4848 22.277C81.6589 23.7504 80.3427 24.6565 78.8879 24.6565C76.8923 24.6565 75.7227 23.1242 75.7227 20.8626C75.7227 16.3984 79.6921 15.5881 83.457 15.5881V16.7225ZM88.6987 29.4891C88.3553 29.7985 87.858 29.8206 87.4707 29.6144C85.7454 28.1705 85.4308 27.5001 84.4878 26.1225C81.6368 29.0545 79.6116 29.9311 75.9198 29.9311C71.5409 29.9311 68.1416 27.2128 68.1416 21.7687C68.1416 17.5181 70.4226 14.623 73.6828 13.2086C76.5047 11.9562 80.4453 11.7352 83.457 11.389V10.7113C83.457 9.46631 83.5522 7.99294 82.8212 6.9174C82.1924 5.95237 80.9788 5.55457 79.904 5.55457C77.9232 5.55457 76.1613 6.57854 75.73 8.70014C75.6422 9.17164 75.2984 9.63574 74.8233 9.65784L69.7864 9.11271C69.3626 9.01694 68.8874 8.67067 69.0114 8.01504C70.1667 1.85645 75.6935 3.05176e-05 80.6351 3.05176e-05C83.1646 3.05176e-05 86.469 0.677774 88.465 2.60786C90.9941 4.9873 90.753 8.16237 90.753 11.6174V19.7797C90.753 22.2329 91.7617 23.3084 92.7121 24.6344C93.0411 25.1059 93.1142 25.6731 92.6903 26.0267C91.6303 26.9181 89.744 28.5756 88.7061 29.5039L88.6987 29.4891Z" fill="#F8F6E9"/>
<path id="Vector_9" fill-rule="evenodd" clip-rule="evenodd" d="M15.3156 16.7225C15.3156 18.7631 15.3667 20.4648 14.3433 22.277C13.5172 23.7504 12.2086 24.6565 10.7465 24.6565C8.75069 24.6565 7.58833 23.1242 7.58833 20.8626C7.58833 16.3984 11.5579 15.588 15.3156 15.588V16.7225ZM20.5572 29.4891C20.2136 29.7985 19.7165 29.8206 19.3291 29.6143C17.6038 28.1704 17.2967 27.5 16.3464 26.1225C13.4952 29.0544 11.4775 29.9311 7.7784 29.9311C3.4067 29.9311 0 27.2127 0 21.7687C0 17.5181 2.2882 14.623 5.5414 13.2086C8.36324 11.9562 12.3036 11.7352 15.3156 11.389V10.7112C15.3156 9.46627 15.4106 7.9929 14.6869 6.91737C14.0508 5.95233 12.8373 5.55453 11.7699 5.55453C9.78881 5.55453 8.01964 6.5785 7.58833 8.70013C7.5006 9.1716 7.15701 9.6357 6.68914 9.6578L1.64487 9.11267C1.22086 9.0169 0.752984 8.67067 0.869952 8.01503C2.03233 1.85642 7.55178 0 12.4937 0C15.0231 0 18.3275 0.677743 20.3233 2.60783C22.8527 4.9873 22.6115 8.16237 22.6115 11.6174V19.7797C22.6115 22.2328 23.6203 23.3084 24.5707 24.6344C24.907 25.1058 24.9801 25.6731 24.5561 26.0267C23.4961 26.9181 21.6099 28.5756 20.5718 29.5038L20.5572 29.4891Z" fill="#F8F6E9"/>
</g>
</g>
</g>
</svg>
