<svg width="191" height="52" viewBox="0 0 191 52" fill="none" xmlns="http://www.w3.org/2000/svg">
<g id="Autopilot (logo &#226;&#128;&#148; White)">
<path id="Vector" d="M178.024 9.35567V40.0335H185.441V18.2762H190.739V11.749H185.441V4.13389L178.024 9.35567ZM174.844 25.8912C174.844 34.8117 168.91 41.1212 160.433 41.1212C151.956 41.1212 146.234 34.8117 146.234 25.8912C146.234 16.9707 152.168 10.6611 160.645 10.6611C169.122 10.6611 174.844 16.9707 174.844 25.8912ZM153.651 25.8912C153.651 31.113 156.406 34.159 160.433 34.159C164.46 34.159 167.427 31.113 167.427 25.8912C167.427 20.6695 164.672 17.6234 160.645 17.6234C156.618 17.6234 153.651 20.6695 153.651 25.8912ZM144.114 1.95816L136.697 7.1799V40.0335H144.114V1.95816ZM128.855 9.57324C126.312 9.57324 124.193 7.39751 124.193 4.7866C124.193 2.17573 126.312 0 128.855 0C131.398 0 133.518 1.95816 133.518 4.56903C133.518 7.1799 131.398 9.57324 128.855 9.57324ZM125.04 40.0335V11.749H132.458V40.0335H125.04ZM96.4293 13.272V52L103.847 46.7783V40.4686C103.847 40.4686 105.331 40.9038 107.238 40.9038C116.987 40.9038 122.921 35.0293 122.921 25.2385C122.921 16.318 116.351 10.6611 107.238 10.6611C102.575 10.6611 99.3963 12.1841 96.4293 13.272ZM103.847 33.5063V18.9289C103.847 18.9289 105.755 18.0586 107.238 18.0586C111.901 18.0586 115.503 20.4519 115.503 25.4561C115.503 31.3305 111.477 34.159 106.814 34.159C105.331 34.159 103.847 33.5063 103.847 33.5063ZM95.3699 25.8912C95.3699 34.8117 89.4355 41.1212 80.9583 41.1212C72.4812 41.1212 66.5468 34.8117 66.5468 25.8912C66.5468 16.9707 72.4812 10.6611 80.9583 10.6611C89.4355 10.6611 95.3699 16.9707 95.3699 25.8912ZM74.1766 25.8912C74.1766 31.113 76.9315 34.159 80.9583 34.159C84.9852 34.159 87.7401 31.113 87.7401 25.8912C87.7401 20.6695 84.9852 17.6234 80.9583 17.6234C76.9315 17.6234 74.1766 20.6695 74.1766 25.8912ZM54.0428 9.35567V40.0335H61.4605V18.2762H66.7589V11.749H61.4605V4.13389L54.0428 9.35567ZM50.864 39.3806C47.6849 40.2509 43.0225 41.1212 39.4195 41.1212C31.366 41.1212 26.4916 38.5103 26.4916 30.0251V11.749H33.9093V29.1548C33.9093 32.8536 35.6048 34.5942 39.4195 34.5942C40.479 34.5942 41.9627 34.3765 43.4463 34.159V11.749H50.864V39.3806ZM15.683 21.5397C15.683 18.7113 13.5637 17.4058 10.8086 17.4058C7.41766 17.4058 4.87444 18.4937 2.75513 19.7991V13.272C5.29833 11.9665 8.4773 10.6611 12.2921 10.6611C18.6501 10.6611 23.3126 13.272 23.3126 21.1046V39.5984C20.5575 40.0335 16.5308 41.1212 12.716 41.1212C5.51026 41.1212 0 38.5103 0 31.9832C0 26.1088 4.66251 23.2803 12.716 23.2803L15.683 23.4979V21.5397ZM15.683 28.2845L13.3518 28.0669C9.74891 28.0669 7.62959 29.1548 7.62959 31.5481C7.62959 33.9414 9.74891 35.0293 12.716 35.0293C13.5637 35.0293 14.6234 34.8117 15.683 34.5942V28.2845Z" fill="#F8F6E9"/>
</g>
</svg>
