<svg width="68" height="59" viewBox="0 0 68 59" fill="none" xmlns="http://www.w3.org/2000/svg">
<g id="Layer_1" clip-path="url(#clip0_22_134)">
<path id="Vector" d="M49.6201 57.8779H43.6422V44.119C43.6422 38.6057 48.1287 34.1192 53.6421 34.1192H67.4071V40.0971H53.6421C51.4233 40.0971 49.6201 41.9002 49.6201 44.119V57.8779Z" fill="#A6F421"/>
<path id="Vector_2" d="M32.9762 58.4219H9.99982C4.48647 58.4219 0 53.9355 0 48.4221V9.99982C0 4.48647 4.48647 0 9.99982 0H58.0002C63.5135 0 68 4.48647 68 9.99982V23.9849H5.97789V48.416C5.97789 50.6348 7.78103 52.4379 9.99982 52.4379H32.9762V58.4158V58.4219ZM5.97789 18.007H62.0221V9.99982C62.0221 7.78103 60.219 5.97789 58.0002 5.97789H9.99982C7.78103 5.97789 5.97789 7.78103 5.97789 9.99982V18.007Z" fill="#F8F6E9"/>
</g>
<defs>
<clipPath id="clip0_22_134">
<rect width="68" height="58.4219" fill="white"/>
</clipPath>
</defs>
</svg>
