<svg width="202" height="52" viewBox="0 0 202 52" fill="none" xmlns="http://www.w3.org/2000/svg">
<g id="Clip path group">
<mask id="mask0_2_109" style="mask-type:luminance" maskUnits="userSpaceOnUse" x="0" y="0" width="202" height="52">
<g id="clip0">
<path id="Vector" d="M201.834 0H0V52H201.834V0Z" fill="white"/>
</g>
</mask>
<g mask="url(#mask0_2_109)">
<g id="Group">
<path id="Vector_2" d="M65.1723 20.3345C65.1723 16.6257 61.6512 12.6867 55.5588 12.6867C48.7169 12.6867 41.201 17.8278 40.0521 28.0846C38.8785 38.4435 45.1712 43.0477 51.5135 43.0477C57.8559 43.0477 61.1771 40.5156 64.573 37.1392C61.6512 33.3792 57.8809 35.1186 57.1568 35.5022C56.3576 35.9114 55.3339 36.474 53.2363 36.474C50.7894 36.474 48.2925 35.3487 48.2925 30.668C63.9737 29.0822 65.1723 24.0433 65.1723 20.3345ZM57.4064 20.9483C57.3067 22.0993 56.8572 24.0688 48.9164 25.1687C50.5895 19.0811 53.7859 18.6208 55.2592 18.6208C56.6323 18.6208 57.5062 19.7206 57.4064 20.9483ZM30.8382 21.9459C30.8382 21.9459 27.4672 32.7909 27.1925 33.6862C27.0926 32.7654 24.6206 13.3006 24.6206 13.3006C18.8774 13.3006 15.8061 17.4953 14.1831 21.9203C14.1831 21.9203 10.0879 32.7909 9.73837 33.7117C9.71342 32.8677 9.11411 22.0482 9.11411 22.0482C8.76454 16.6257 3.92032 13.3261 0 13.3261L4.74432 42.8177C10.7622 42.792 14.0083 38.6226 15.7063 34.1977C15.7063 34.1977 19.3269 24.606 19.4767 24.1712C19.5017 24.5804 22.0737 42.8177 22.0737 42.8177C28.1164 42.8177 31.3626 38.9039 33.1105 34.6325L41.5753 13.3261C35.6073 13.3261 32.4613 17.4953 30.8382 21.9459ZM87.3458 12.6355C83.6252 12.6355 80.7785 14.7073 78.3813 17.7511V17.7255L80.5289 0C75.5847 0 71.5644 4.39942 70.7906 10.9474L67.045 42.5873C69.8916 42.5873 72.9128 41.7434 74.5359 39.5947C75.9844 41.513 78.1567 43.0477 81.3778 43.0477C89.718 43.0477 95.436 33.1235 95.436 23.8131C95.3863 15.3212 91.366 12.6355 87.3458 12.6355ZM86.5716 27.8544C85.6977 33.0467 82.8761 36.5766 80.1542 36.5766C77.4076 36.5766 76.234 35.3232 76.234 35.3232C76.7582 30.7703 77.0829 27.9823 78.0816 25.578C79.0807 23.1736 81.4529 19.3369 83.9248 19.3369C86.3471 19.3369 87.4456 22.6365 86.5716 27.8544ZM116.261 13.3261H110.443L110.468 13.0192C110.868 9.13134 111.767 7.08511 114.738 6.7526C116.761 6.54796 117.66 5.47369 117.884 4.29711C118.059 3.37629 118.609 0.179046 118.609 0.179046C106.923 0.102312 103.252 5.26904 102.303 13.1471L102.278 13.3261H102.153C100.255 13.3261 98.1579 15.5258 97.8082 18.3138L97.6834 19.3369H101.579L98.3077 47.0123L97.309 51.9744C97.4338 51.9744 97.5836 52 97.7084 52C103.177 51.7952 106.673 47.3706 107.447 40.9504L109.994 19.3369H111.816C113.614 19.3369 115.712 17.4953 116.087 14.426L116.261 13.3261ZM146.525 12.8146C139.808 12.8146 133.466 17.879 131.518 25.8337C129.57 33.7885 132.517 43.2012 142.405 43.2012C152.268 43.2012 157.962 33.4048 157.962 25.2455C157.962 17.1372 152.593 12.8146 146.525 12.8146ZM149.247 27.5986C148.897 31.2051 147.349 36.6788 143.104 36.6788C138.834 36.6788 139.434 30.2843 139.858 27.2405C140.308 23.9921 142.08 19.3625 145.901 19.3625C149.322 19.3625 149.646 23.5317 149.247 27.5986ZM191.147 21.9459C191.147 21.9459 187.776 32.7909 187.501 33.6862C187.401 32.7654 184.929 13.3006 184.929 13.3006C179.186 13.3006 176.115 17.4953 174.492 21.9203C174.492 21.9203 170.397 32.7909 170.047 33.7117C170.022 32.8677 169.423 22.0482 169.423 22.0482C169.073 16.6257 164.229 13.3261 160.309 13.3261L165.028 42.8177C171.046 42.792 174.292 38.6226 175.99 34.1977C175.99 34.1977 179.61 24.606 179.736 24.1712C179.785 24.5804 182.332 42.8177 182.332 42.8177C188.375 42.8177 191.621 38.9039 193.369 34.6325L201.834 13.3261C195.891 13.3261 192.745 17.4953 191.147 21.9459ZM121.755 0.179046L116.86 40.6178L115.862 45.6054C115.986 45.6054 116.136 45.6311 116.261 45.6311C121.53 45.5545 125.276 40.8225 125.975 34.8627L128.796 11.6636C129.645 4.57845 125.525 0.179046 121.755 0.179046Z" fill="#F8F6E9"/>
</g>
</g>
</g>
</svg>
