<svg width="83" height="68" viewBox="0 0 83 68" fill="none" xmlns="http://www.w3.org/2000/svg">
<g id="Layer_1" clip-path="url(#clip0_22_128)">
<g id="Group">
<path id="Vector" d="M21.6227 -0.000124344L-0.000228882 21.6228L4.3085 25.9315L25.9314 4.3086L21.6227 -0.000124344Z" fill="#A6F421"/>
<path id="Vector_2" d="M4.3085 -0.000132447L-0.000228882 4.30859L21.6227 25.9315L25.9314 21.6228L4.3085 -0.000132447Z" fill="#A6F421"/>
</g>
<path id="Vector_3" d="M27.3146 64.866H26.0125C17.134 64.866 9.91278 57.6449 9.91278 48.7663V28.3676H16.0062V48.7663C16.0062 54.2804 20.4922 58.7663 26.0062 58.7663H27.3084C32.8224 58.7663 37.3084 54.2804 37.3084 48.7663V17.4143C37.3084 8.53582 44.5296 1.31464 53.4081 1.31464C62.2866 1.31464 69.5078 8.53582 69.5078 17.4143V30.3614H63.4143V17.4143C63.4143 11.9003 58.9284 7.41432 53.4143 7.41432C47.9003 7.41432 43.4143 11.9003 43.4143 17.4143V48.7726C43.4143 57.6511 36.1932 64.8723 27.3146 64.8723V64.866Z" fill="#F8F6E9"/>
<path id="Vector_4" d="M66.4611 68L49.9377 51.4766L66.4611 34.9532L82.9844 51.4766L66.4611 68ZM58.5607 51.4766L66.4611 59.3769L74.3614 51.4766L66.4611 43.5763L58.5607 51.4766Z" fill="#A6F421"/>
</g>
<defs>
<clipPath id="clip0_22_128">
<rect width="82.9907" height="68" fill="white"/>
</clipPath>
</defs>
</svg>
