<svg width="167" height="51" viewBox="0 0 167 51" fill="none" xmlns="http://www.w3.org/2000/svg">
<g id="Logitech (logo &#226;&#128;&#148; White)">
<path id="Vector" d="M0 36.0751V0.747414H6.16037V36.0751H0Z" fill="#F8F6E9"/>
<path id="Vector_2" d="M21.9296 10.4462C14.0312 10.4462 8.56534 16.5637 8.56534 23.5659C8.56534 31.3807 14.5115 36.7643 21.9909 36.7643C29.0893 36.7643 35.2489 31.4798 35.2489 23.549C35.2489 16.88 30.1449 10.4462 21.9296 10.4462ZM21.857 16.4327C25.9905 16.4327 29.033 19.6739 29.033 23.5884C29.033 27.7388 25.6785 30.7665 21.9686 30.7665C17.5849 30.7665 14.8262 27.2665 14.8262 23.5996C14.8262 19.5802 17.9409 16.4327 21.857 16.4327Z" fill="#F8F6E9"/>
<path id="Vector_3" d="M50.7269 10.4462C42.8286 10.4462 37.3626 16.5637 37.3626 23.5659C37.3626 31.3807 43.3089 36.7643 50.7884 36.7643C57.8868 36.7643 64.0464 31.4798 64.0464 23.549C64.0464 18.8788 62.0389 16.8066 62.0389 16.8066L63.7462 16.2168V11.1802H54.9968C54.9968 11.1802 53.1 10.4462 50.7269 10.4462ZM50.6544 16.4327C54.7879 16.4327 57.8305 19.6739 57.8305 23.5884C57.8305 27.7388 54.4761 30.7665 50.7662 30.7665C46.3824 30.7665 43.6236 27.2665 43.6236 23.5996C43.6236 19.5802 46.7382 16.4327 50.6544 16.4327Z" fill="#F8F6E9"/>
<path id="Vector_4" d="M57.7869 37.8016C57.7869 41.9521 54.4325 45.0025 50.7226 45.0025C46.3388 45.0025 43.5691 41.4687 43.5691 37.8016H37.3194C37.3194 45.6167 43.2656 51 50.7448 51C57.8435 51 64.0032 45.7325 64.0032 37.8016H57.7869Z" fill="#F8F6E9"/>
<path id="Vector_5" d="M66.5142 36.0751V11.1801H72.6745V36.0751H66.5142Z" fill="#F8F6E9"/>
<path id="Vector_6" d="M78.6563 36.0747V16.7559H75.3528V11.1798H78.6563V3.5351H84.8166V11.1798H88.2094V16.7559H84.8166V36.0747H78.6563Z" fill="#F8F6E9"/>
<path id="Vector_7" d="M73.6607 4.1094C73.6607 6.37897 71.8342 8.21879 69.5813 8.21879C67.3284 8.21879 65.502 6.37897 65.502 4.1094C65.502 1.83984 67.3284 0 69.5813 0C71.8342 0 73.6607 1.83984 73.6607 4.1094Z" fill="#F8F6E9"/>
<path id="Vector_8" d="M102.059 10.4293C94.1233 10.4293 89.0074 16.55 89.0074 23.7907C89.0074 31.2731 94.1402 36.7809 102.187 36.7809C109.694 36.7809 113.387 32.0593 113.387 32.0593L109.269 27.9053C109.269 27.9053 106.159 31.2836 102.265 31.2836C99.0197 31.2836 96.4247 29.4587 95.519 26.1121H114.715V24.4033C114.715 17.5849 110.797 10.4293 102.059 10.4293ZM101.864 15.8929C104.702 15.8929 107.604 17.4223 108.253 21.0756H95.3517C95.8629 18.5076 98.0929 15.8929 101.864 15.8929Z" fill="#F8F6E9"/>
<path id="Vector_9" d="M130.124 36.7841C122.165 36.7841 116.742 30.6782 116.742 23.4789C116.742 16.0493 122.871 10.4244 130.098 10.4244C137.084 10.4244 140.66 15.3925 140.66 15.3925L136.363 19.702C136.363 19.702 133.874 16.462 130.069 16.462C125.852 16.462 122.968 19.7115 122.968 23.5742C122.968 27.6528 126.035 30.7819 130.021 30.7819C133.887 30.7819 136.357 27.5472 136.357 27.5472L140.697 31.8542C140.697 31.8542 137.156 36.7841 130.124 36.7841Z" fill="#F8F6E9"/>
<path id="Vector_10" d="M142.939 36.0928V0.657143H149.099V13.6763C149.099 13.6763 151.458 10.4243 156.589 10.4243C163.039 10.4243 166.776 15.2547 166.776 21.4328V36.0928H160.616V22.3707C160.616 18.2202 158.051 16.4982 155.209 16.4982C151.971 16.4982 149.099 18.3544 149.099 22.6919V36.0928H142.939Z" fill="#F8F6E9"/>
</g>
</svg>
