<svg width="167" height="52" viewBox="0 0 167 52" fill="none" xmlns="http://www.w3.org/2000/svg">
<g id="Loom (logo &#226;&#128;&#148; White)">
<path id="Vector" d="M50.3264 23.2787H34.9952L48.2721 15.3573L45.6392 10.6427L32.3608 18.564L40.0248 4.84467L35.4634 2.12333L27.7977 15.8392V0H22.5287V15.8409L14.8631 2.12333L10.3001 4.84467L17.9639 18.5605L4.68886 10.6427L2.05431 15.3573L15.331 23.2787H0V28.7231H15.3293L2.05431 36.6445L4.68718 41.3591L17.9656 33.4377L10.3001 47.1571L14.8615 49.8785L22.5287 36.1609V52H27.7977V35.8211L35.6042 49.7918L39.8823 47.2402L32.0741 33.2661L45.6357 41.3573L48.2703 36.6427L34.9952 28.7213H50.3246V23.2787H50.3264ZM25.1632 33.4013C24.2226 33.4014 23.2912 33.2101 22.4222 32.8381C21.5532 32.4662 20.7635 31.921 20.0983 31.2337C19.4332 30.5463 18.9055 29.7302 18.5455 28.8321C18.1854 27.934 18 26.9713 17.9999 25.9991C17.9998 25.0269 18.185 24.0643 18.5448 23.166C18.9047 22.2678 19.4322 21.4516 20.0972 20.7641C20.7622 20.0766 21.5517 19.5312 22.4207 19.1591C23.2896 18.7869 24.2209 18.5953 25.1615 18.5952C27.0611 18.595 28.883 19.3747 30.2264 20.7629C31.5697 22.1511 32.3246 24.034 32.3248 25.9974C32.325 27.9608 31.5706 29.8439 30.2276 31.2324C28.8845 32.6209 27.0628 33.4011 25.1632 33.4013Z" fill="#F8F6E9"/>
<path id="Vector_2" d="M63.9082 45.0204V6.98067H70.663V45.0204H63.9082ZM128.695 19.1695H135.145V22.3241C136.517 19.8021 139.718 18.4345 142.46 18.4345C145.864 18.4345 148.606 19.9599 149.875 22.7419C151.854 19.5872 154.497 18.4345 157.799 18.4345C162.421 18.4345 166.838 21.324 166.838 28.259V45.0204H160.288V29.6786C160.288 26.8932 158.967 24.7907 155.868 24.7907C152.971 24.7907 151.244 27.1046 151.244 29.8901V45.0223H144.543V29.6786C144.543 26.8932 143.171 24.7907 140.122 24.7907C137.176 24.7907 135.449 27.0526 135.449 29.8901V45.0223H128.695V19.1695ZM85.9288 45.769C78.3184 45.769 72.8078 39.9331 72.8078 32.0949C72.8078 24.3816 78.3017 18.4085 85.9288 18.4085C93.5927 18.4085 99.0495 24.4371 99.0495 32.0949C99.0495 39.8775 93.5354 45.769 85.9288 45.769ZM85.9288 24.7352C84.0412 24.738 82.2314 25.5146 80.8972 26.8947C79.5629 28.2748 78.8128 30.1456 78.8114 32.0966C78.8128 34.0477 79.5629 35.9186 80.8972 37.2988C82.2314 38.6786 84.0412 39.4554 85.9288 39.4582C87.8161 39.455 89.6252 38.6782 90.9591 37.2981C92.293 35.918 93.0427 34.0474 93.0441 32.0966C93.0427 30.1459 92.293 28.2753 90.9591 26.8953C89.6252 25.5152 87.8161 24.7384 85.9288 24.7352ZM113.476 45.769C105.866 45.769 100.356 39.9331 100.356 32.0949C100.356 24.3816 105.85 18.4085 113.476 18.4085C121.14 18.4085 126.597 24.4371 126.597 32.0949C126.597 39.8775 121.08 45.769 113.476 45.769ZM113.476 24.6468C111.567 24.65 109.737 25.4357 108.388 26.8316C107.038 28.2276 106.279 30.1197 106.277 32.0932C106.279 34.0666 107.038 35.9588 108.388 37.3548C109.737 38.7505 111.567 39.5363 113.476 39.5395C115.386 39.5363 117.216 38.7505 118.565 37.3548C119.915 35.9588 120.674 34.0666 120.676 32.0932C120.674 30.1197 119.915 28.2276 118.565 26.8316C117.216 25.4357 115.386 24.65 113.476 24.6468Z" fill="#F8F6E9"/>
</g>
</svg>
