<svg width="1906" height="956" viewBox="0 0 1906 956" fill="none" xmlns="http://www.w3.org/2000/svg">
<path d="M0 892.268H953.002M0 828.535H953.002M0 764.803H953.002M0 701.066H953.002M0 637.333H953.002M0 573.601H953.002M0 509.868H953.002M0 446.136H953.002M0 382.399H953.002M0 318.667H953.002M0 254.934H953.002M0 191.202H953.002M0 127.465H953.002M0 63.7325H953.002M889.466 0V956M825.935 0V956M762.399 0V956M698.868 0V956M635.332 0V956M571.8 0V956M508.269 0V956M444.733 0V956M381.202 0V956M317.666 0V956M254.134 0V956M190.599 0V956M127.067 0V956M63.5315 0V956M952.998 892.268H1906M952.998 828.535H1906M952.998 764.803H1906M952.998 701.07H1906M952.998 637.338H1906M952.998 573.605H1906M952.998 509.873H1906M952.998 446.14H1906M952.998 382.408H1906M952.998 318.675H1906M952.998 254.943H1906M952.998 191.21H1906M952.998 127.478H1906M952.998 63.7455H1906M1842.47 0V956M1778.93 0V956M1715.4 0V956M1651.87 0V956M1588.33 0V956M1524.8 0V956M1461.27 0V956M1397.74 0V956M1334.2 0V956M1270.67 0V956M1207.13 0V956M1143.6 0V956M1080.07 0V956M1016.53 0V956M953.002 0V956" stroke="url(#paint0_radial_25_293)" stroke-miterlimit="10"/>
<defs>
<radialGradient id="paint0_radial_25_293" cx="0" cy="0" r="1" gradientUnits="userSpaceOnUse" gradientTransform="translate(953 478) rotate(90) scale(478 953)">
<stop stop-color="#555555"/>
<stop offset="1" stop-opacity="0"/>
</radialGradient>
</defs>
</svg>
