<svg width="71" height="68" viewBox="0 0 71 68" fill="none" xmlns="http://www.w3.org/2000/svg">
<g id="Layer_1" clip-path="url(#clip0_22_171)">
<path id="Vector" d="M17.146 67.9999C7.69395 67.9999 0 60.3125 0 50.854C0 41.3955 7.68746 33.708 17.146 33.708C26.6045 33.708 34.2919 41.3955 34.2919 50.854C34.2919 60.3125 26.6045 67.9999 17.146 67.9999ZM17.146 40.0591C11.1906 40.0591 6.35108 44.9051 6.35108 50.854C6.35108 56.8028 11.1971 61.6489 17.146 61.6489C23.0948 61.6489 27.9409 56.8028 27.9409 50.854C27.9409 44.9051 23.0948 40.0591 17.146 40.0591Z" fill="#A6F421"/>
<path id="Vector_2" d="M63.167 66.6766H46.2091C42.161 66.6766 38.8655 63.381 38.8655 59.3329V42.3751C38.8655 38.327 42.161 35.038 46.2091 35.038H63.167C67.215 35.038 70.5106 38.3335 70.5106 42.3751V59.3329C70.5106 63.381 67.215 66.6766 63.167 66.6766ZM46.2091 41.3826C45.6642 41.3826 45.2166 41.8302 45.2166 42.3751V59.3329C45.2166 59.8779 45.6642 60.3255 46.2091 60.3255H63.167C63.7119 60.3255 64.1595 59.8779 64.1595 59.3329V42.3751C64.1595 41.8302 63.7119 41.3826 63.167 41.3826H46.2091Z" fill="#F8F6E9"/>
<path id="Vector_3" d="M45.1452 32.1641H26.2736C23.4127 32.1641 20.8502 30.685 19.423 28.2068C17.9958 25.7287 17.9958 22.7705 19.423 20.2988L28.8556 3.95726C30.2828 1.47911 32.8453 0 35.7062 0C38.5671 0 41.1295 1.47911 42.5568 3.95726L51.9893 20.2988C53.4165 22.777 53.4165 25.7287 51.9893 28.2068C50.5621 30.685 47.9996 32.1641 45.1387 32.1641H45.1452ZM35.7126 6.35108C35.4402 6.35108 34.7655 6.42893 34.3568 7.12956L24.9242 23.4711C24.5155 24.1782 24.788 24.801 24.9242 25.0345C25.0605 25.2681 25.4627 25.813 26.2801 25.813H45.1517C45.9691 25.813 46.3713 25.2681 46.5075 25.0345C46.6438 24.801 46.9162 24.1782 46.5075 23.4711L37.075 7.12956C36.6663 6.42244 35.9916 6.35108 35.7191 6.35108H35.7126Z" fill="#F8F6E9"/>
</g>
<defs>
<clipPath id="clip0_22_171">
<rect width="70.5041" height="68" fill="white"/>
</clipPath>
</defs>
</svg>
