<svg width="68" height="53" viewBox="0 0 68 53" fill="none" xmlns="http://www.w3.org/2000/svg">
<g id="Layer_1" clip-path="url(#clip0_22_168)">
<path id="Vector" d="M34.6096 52.7729H7.90061C4.75677 52.7729 2.00112 50.9904 0.710775 48.1254C-0.579568 45.2604 -0.0874884 42.0182 1.99565 39.6617L12.3239 27.983C13.1331 27.0699 13.1331 25.692 12.3239 24.779L1.99565 13.1057C-0.0874884 10.7547 -0.579568 7.51242 0.710775 4.64742C2.00112 1.78242 4.75677 0 7.90061 0H34.6096C37.7535 0 40.5091 1.78242 41.7995 4.64742C43.0898 7.51242 42.5977 10.7547 40.5146 13.1112L30.1864 24.7899C29.3772 25.703 29.3772 27.0808 30.1864 27.9939L40.5146 39.6726C42.5977 42.0291 43.0898 45.2714 41.7995 48.1364C40.5091 51.0014 37.7535 52.7838 34.6096 52.7838V52.7729ZM7.90061 5.46756C6.45171 5.46756 5.85028 6.5556 5.69719 6.88912C5.54409 7.22264 5.12856 8.39817 6.09085 9.48074L16.4191 21.1594C19.0544 24.1393 19.0544 28.6281 16.4191 31.6079L6.09085 43.2866C5.12856 44.3747 5.54956 45.5447 5.69719 45.8783C5.84481 46.2118 6.45171 47.2998 7.90061 47.2998H34.6096C36.0585 47.2998 36.66 46.2118 36.813 45.8783C36.9661 45.5447 37.3817 44.3692 36.4194 43.2866L26.0912 31.6079C23.4558 28.6281 23.4558 24.1393 26.0912 21.1594L36.4194 9.48074C37.3817 8.3927 36.9607 7.22264 36.813 6.88912C36.66 6.5556 36.0585 5.46756 34.6096 5.46756H7.90061Z" fill="#F8F6E9"/>
<path id="Vector_2" d="M53.0353 41.2964C51.4989 41.2964 50.0555 40.695 48.9674 39.6124L39.7601 30.405C37.5184 28.1633 37.5184 24.511 39.7601 22.2693L48.9674 13.0619C50.0555 11.9739 51.4989 11.3779 53.0353 11.3779C54.5717 11.3779 56.0206 11.9794 57.1032 13.0619L66.3105 22.2693C68.5522 24.511 68.5522 28.1633 66.3105 30.405L57.0977 39.6124C56.0096 40.7004 54.5662 41.2964 53.0298 41.2964H53.0353ZM53.0353 16.8346C52.9587 16.8346 52.8877 16.8619 52.833 16.9166L43.6256 26.1239C43.5163 26.2387 43.5163 26.4192 43.6256 26.5285L52.833 35.7359C52.9478 35.8452 53.1282 35.8507 53.2376 35.7359L62.4504 26.5285C62.5598 26.4192 62.5598 26.2333 62.4504 26.1239L53.2431 16.9166C53.1884 16.8619 53.1173 16.8346 53.0408 16.8346H53.0353Z" fill="#A6F421"/>
</g>
<defs>
<clipPath id="clip0_22_168">
<rect width="68" height="52.7729" fill="white"/>
</clipPath>
</defs>
</svg>
