<svg width="61" height="62" viewBox="0 0 61 62" fill="none" xmlns="http://www.w3.org/2000/svg">
<path id="Vector" fill-rule="evenodd" clip-rule="evenodd" d="M60.9816 30.5889L60.9801 30.8938L60.9755 31.1987L60.9679 31.5035L60.9572 31.8082L60.9435 32.1128L60.9267 32.4173L60.9069 32.7215L60.8841 33.0256L60.8582 33.3294L60.8293 33.6329L60.7973 33.9361L60.7623 34.239L60.7243 34.5416L60.6833 34.8437L60.6392 35.1454L60.5921 35.4467L60.5421 35.7474L60.489 36.0477L60.4329 36.3474L60.3738 36.6465L60.3117 36.945L60.2467 37.2429L60.1787 37.5401L60.1077 37.8367L60.0337 38.1325L59.9568 38.4275L59.8769 38.7218L59.7941 39.0152L59.7084 39.3078L59.6198 39.5996L59.5282 39.8904L59.4337 40.1803L59.3364 40.4693L59.2361 40.7572L59.133 41.0442L59.027 41.33L58.9182 41.6149L58.8065 41.8986L58.692 42.1812L58.5747 42.4626L58.4545 42.7428L58.3316 43.0219L58.2059 43.2997L58.0774 43.5762L57.9461 43.8514L57.8121 44.1253L57.6754 44.3978L57.536 44.6689L57.3938 44.9387L57.249 45.207L57.1015 45.4738L56.9513 45.7392L56.7985 46.003L56.643 46.2653L56.4849 46.5261L56.3243 46.7852L56.161 47.0427L55.9952 47.2986L55.8268 47.5528L55.6559 47.8053L55.4825 48.0561L55.3066 48.3052L55.1282 48.5524L54.9473 48.7979L54.764 49.0415L54.5783 49.2834L54.3901 49.5233L54.1996 49.7613L54.0067 49.9975L53.8114 50.2316L53.6138 50.4639L53.4139 50.6941L53.2118 50.9223L53.0073 51.1485L52.8006 51.3726L52.5916 51.5947L52.3805 51.8147L52.1671 52.0325L51.9516 52.2482L51.7339 52.4617L51.5141 52.673L51.2923 52.8822L51.0683 53.0891L50.8423 53.2937L50.6142 53.4961L50.3841 53.6962L50.1521 53.8939L49.918 54.0894L49.6821 54.2825L49.4442 54.4732L49.2044 54.6615L48.9627 54.8475L48.7192 55.031L48.4739 55.212L48.2268 55.3906L47.9779 55.5667L47.7272 55.7404L47.4748 55.9115L47.2208 56.08L46.965 56.2461L46.7076 56.4095L46.4486 56.5704L46.188 56.7287L45.9258 56.8843L45.6621 57.0374L45.3969 57.1878L45.1302 57.3355L44.862 57.4805L44.5923 57.6229L44.3213 57.7626L44.0489 57.8995L43.7751 58.0337L43.5 58.1652L43.2236 58.2939L42.9459 58.4198L42.667 58.543L42.3868 58.6634L42.1055 58.7809L41.823 58.8957L41.5394 59.0076L41.2546 59.1166L40.9688 59.2228L40.682 59.3262L40.3941 59.4267L40.1052 59.5243L39.8154 59.6189L39.5246 59.7107L39.233 59.7996L38.9404 59.8856L38.647 59.9686L38.3528 60.0487L38.0578 60.1259L37.7621 60.2L37.4656 60.2713L37.1685 60.3395L36.8706 60.4048L36.5722 60.4671L36.2731 60.5265L35.9734 60.5828L35.6732 60.6361L35.3725 60.6864L35.0713 60.7337L34.7696 60.778L34.4675 60.8193L34.165 60.8576L33.8621 60.8928L33.5589 60.925L33.2554 60.9542L32.9516 60.9803L32.6476 61.0034L32.3434 61.0234L32.0389 61.0404L31.7343 61.0544L31.4296 61.0653L31.1248 61.0732L30.82 61.078L30.5151 61.0797L30.2102 61.0785L29.9053 61.0741L29.6005 61.0667L29.2957 61.0563L28.9911 61.0429L28.6867 61.0263L28.3824 61.0068L28.0783 60.9842L27.7745 60.9585L27.4709 60.9298L27.1677 60.8981L26.8648 60.8634L26.5622 60.8256L26.26 60.7848L25.9583 60.741L25.657 60.6942L25.3562 60.6443L25.0559 60.5915L24.7562 60.5356L24.457 60.4768L24.1584 60.4149L23.8605 60.3501L23.5632 60.2823L23.2666 60.2116L22.9708 60.1379L22.6756 60.0612L22.3813 59.9816L22.0878 59.899L21.7951 59.8135L21.5033 59.7251L21.2124 59.6338L20.9224 59.5395L20.6334 59.4424L20.3454 59.3424L20.0584 59.2395L19.7724 59.1337L19.4875 59.0251L19.2037 58.9137L18.921 58.7994L18.6395 58.6823L18.3591 58.5624L18.08 58.4397L17.8021 58.3142L17.5255 58.1859L17.2502 58.0549L16.9762 57.9211L16.7036 57.7846L16.4323 57.6453L16.1624 57.5034L15.894 57.3588L15.6271 57.2115L15.3616 57.0615L15.0976 56.9089L14.8352 56.7536L14.5743 56.5958L14.3151 56.4353L14.0574 56.2723L13.8014 56.1067L13.5471 55.9385L13.2944 55.7678L13.0435 55.5946L12.7943 55.4188L12.5469 55.2406L12.3013 55.06L12.0575 54.8769L11.8155 54.6913L11.5754 54.5034L11.3373 54.313L11.101 54.1203L10.8666 53.9252L10.6343 53.7278L10.4039 53.5281L10.1755 53.3261L9.94913 53.1218L9.72483 52.9153L9.50261 52.7065L9.28248 52.4955L9.06448 52.2823L8.84862 52.067L8.63493 51.8495L8.42342 51.6299L8.21412 51.4082L8.00704 51.1843L7.80221 50.9585L7.59966 50.7306L7.39939 50.5007L7.20143 50.2688L7.0058 50.0349L6.81252 49.7991L6.6216 49.5613L6.43307 49.3217L6.24695 49.0802L6.06325 48.8368L5.882 48.5916L5.70321 48.3447L5.52689 48.0959L5.35307 47.8454L5.18177 47.5932L5.01299 47.3392L4.84677 47.0836L4.68311 46.8263L4.52202 46.5675L4.36354 46.307L4.20767 46.0449L4.05442 45.7813L3.90383 45.5162L3.75588 45.2496L3.61062 44.9815L3.46804 44.712L3.32816 44.4411L3.191 44.1688L3.05657 43.8951L2.92488 43.6201L2.79595 43.3438L2.66979 43.0662L2.54641 42.7874L2.42582 42.5073L2.30804 42.2261L2.19308 41.9437L2.08095 41.6601L1.97166 41.3755L1.86522 41.0898L1.76165 40.803L1.66095 40.5152L1.56313 40.2264L1.4682 39.9366L1.37618 39.6459L1.28706 39.3544L1.20087 39.0619L1.11761 38.7686L1.03728 38.4744L0.959899 38.1795L0.885471 37.8838L0.814003 37.5874L0.745503 37.2903L0.679978 36.9925L0.617433 36.6941L0.557876 36.3951L0.501312 36.0954L0.447747 35.7953L0.397187 35.4946L0.349635 35.1934L0.305098 34.8918L0.26358 34.5897L0.225084 34.2872L0.189614 33.9844L0.157175 33.6812L0.127769 33.3777L0.101399 33.074L0.0780684 32.77L0.0577789 32.4657L0.0405326 32.1613L0.0263313 31.8567L0.0151764 31.552L0.00706911 31.2472L0.00201013 30.9424L0 30.6375L0.00103892 30.3326L0.00512679 30.0277L0.0122632 29.7229L0.0224474 29.4181L0.0356785 29.1135L0.051955 28.809L0.0712754 28.5047L0.0936377 28.2006L0.11904 27.8968L0.147479 27.5932L0.178952 27.2899L0.213457 26.987L0.250989 26.6844L0.291546 26.3822L0.335122 26.0804L0.381713 25.7791L0.431316 25.4783L0.483924 25.1779L0.539534 24.8781L0.598138 24.5789L0.659731 24.2803L0.724308 23.9823L0.791861 23.685L0.862384 23.3883L0.93587 23.0924L1.01231 22.7972L1.0917 22.5028L1.17403 22.2093L1.25929 21.9165L1.34747 21.6246L1.43857 21.3337L1.53258 21.0436L1.62947 20.7545L1.72926 20.4664L1.83192 20.1793L1.93745 19.8932L2.04583 19.6082L2.15706 19.3243L2.27112 19.0416L2.388 18.76L2.50769 18.4795L2.63018 18.2003L2.75546 17.9223L2.88351 17.6456L3.01432 17.3702L3.14788 17.0961L3.28417 16.8233L3.42319 16.552L3.56491 16.282L3.70932 16.0134L3.85641 15.7464L4.00617 15.4808L4.15857 15.2167L4.31361 14.9541L4.47126 14.6931L4.63152 14.4338L4.79436 14.176L4.95977 13.9198L5.12773 13.6654L5.29823 13.4126L5.47125 13.1615L5.64677 12.9122L5.82478 12.6646L6.00525 12.4189L6.18818 12.1749L6.37353 11.9328L6.56129 11.6926L6.75145 11.4543L6.94398 11.2178L7.13886 10.9833L7.33608 10.7508L7.53562 10.5202L7.73745 10.2917L7.94155 10.0652L8.14791 9.84072L8.35651 9.61833L8.56732 9.39804L8.78032 9.17987L8.99549 8.96384L9.21281 8.74997L9.43226 8.53829L9.65382 8.32881L9.87746 8.12155L10.1032 7.91655L10.3309 7.71381L10.5606 7.51336L10.7924 7.31521L11.0261 7.11939L11.2618 6.92592L11.4994 6.73482L11.7389 6.5461L11.9802 6.35979L12.2234 6.1759L12.4685 5.99445L12.7153 5.81546L12.9639 5.63894L13.2143 5.46492L13.4664 5.29342L13.7202 5.12444L13.9757 4.95801L14.2328 4.79414L14.4916 4.63286L14.7519 4.47417L15.0138 4.31809L15.2773 4.16463L15.5423 4.01382L15.8088 3.86567L16.0768 3.72019L16.3462 3.57739L16.617 3.4373L16.8892 3.29992L17.1628 3.16527L17.4377 3.03337L17.7139 2.90421L17.9914 2.77783L18.2701 2.65423L18.55 2.53342L18.8312 2.41542L19.1135 2.30023L19.3969 2.18788L19.6815 2.07836L19.9671 1.97169L20.2538 1.86789L20.5416 1.76696L20.8303 1.66891L21.1199 1.57375L21.4106 1.4815L21.7021 1.39215L21.9945 1.30572L22.2877 1.22223L22.5818 1.14167L22.8767 1.06405L23.1723 0.989386L23.4687 0.917682L23.7657 0.848946L24.0634 0.783183L24.3618 0.720401L24.6608 0.660606L24.9604 0.603803L25.2605 0.55L25.5611 0.499199L25.8623 0.451408L26.1639 0.406631L26.4659 0.364872L26.7683 0.326135L27.0712 0.290424L27.3743 0.257743L27.6778 0.228096L27.9815 0.201484L28.2855 0.177911L28.5897 0.157379L28.8941 0.139891L29.1987 0.125447L29.5034 0.114049L29.8082 0.105699L30.113 0.100397L30.4179 0.0981445L30.7228 0.0989406L31.0277 0.102786L31.3326 0.109679L31.6373 0.119621L31.9419 0.132609L32.2464 0.148644L32.5507 0.167722L32.8548 0.189842L33.1587 0.215002L33.4623 0.243199L33.7656 0.274431L34.0686 0.308695L34.3712 0.345986L34.6734 0.386302L34.9752 0.429638L35.2766 0.475989L35.5775 0.525352L35.8779 0.577722L36.1777 0.633092L36.477 0.691458L36.7756 0.752814L37.0737 0.817153L37.3711 0.88447L37.6678 0.954757L37.9637 1.02801L38.259 1.10421L38.5534 1.18337L38.8471 1.26546L39.1399 1.35049L39.4318 1.43844L39.7229 1.52931L40.013 1.62308L40.3022 1.71975L40.5904 1.81931L40.8776 1.92174L41.1637 2.02704L41.4488 2.13519L41.7328 2.2462L42.0156 2.36003L42.2973 2.47669L42.5779 2.59616L42.8572 2.71843L43.1353 2.84348L43.4121 2.97131L43.6876 3.1019L43.9618 3.23524L44.2347 3.37132L44.5062 3.51012L44.7762 3.65162L45.0449 3.79582L45.3121 3.9427L45.5778 4.09224L45.842 4.24444L46.1047 4.39926L46.3658 4.55671L46.6253 4.71676L46.8832 4.8794L47.1395 5.0446L47.3941 5.21237L47.647 5.38266L47.8982 5.55548L48.1477 5.73081L48.3954 5.90862L48.6413 6.08889L48.8854 6.27162L49.1276 6.45678L49.368 6.64435L49.6065 6.83432L49.8431 7.02666L50.0777 7.22136L50.3104 7.41839L50.5411 7.61775L50.7698 7.81939L50.9965 8.02332L51.2211 8.2295L51.4437 8.43792L51.6642 8.64855L51.8825 8.86138L52.0987 9.07638L52.3127 9.29353L52.5246 9.51281L52.7343 9.7342L52.9417 9.95768L53.1469 10.1832L53.3498 10.4108L53.5504 10.6404L53.7488 10.872L53.9448 11.1055L54.1384 11.3411L54.3297 11.5785L54.5186 11.8178L54.7051 12.059L54.8892 12.3021L55.0709 12.547L55.25 12.7937L55.4268 13.0422L55.601 13.2924L55.7727 13.5444L55.9418 13.798L56.1085 14.0534L56.2726 14.3104L56.434 14.569L56.5929 14.8292L56.7492 15.091L56.9029 15.3544L57.0539 15.6193L57.2023 15.8857L57.348 16.1535L57.491 16.4228L57.6313 16.6935L57.7689 16.9656L57.9038 17.239L58.0359 17.5138L58.1653 17.7899L58.2919 18.0673L58.4157 18.346L58.5367 18.6258L58.6549 18.9069L58.7704 19.1891L58.8829 19.4725L58.9927 19.7569L59.0996 20.0425L59.2036 20.3291L59.3048 20.6167L59.403 20.9054L59.4984 21.195L59.5909 21.4855L59.6805 21.777L59.7672 22.0693L59.8509 22.3625L59.9317 22.6565L60.0095 22.9513L60.0844 23.2468L60.1564 23.5431L60.2253 23.8402L60.2913 24.1378L60.3544 24.4362L60.4144 24.7351L60.4714 25.0346L60.5255 25.3347L60.5765 25.6353L60.6245 25.9364L60.6696 26.238L60.7116 26.54L60.7505 26.8424L60.7865 27.1452L60.8194 27.4483L60.8493 27.7517L60.8762 28.0554L60.9 28.3594L60.9207 28.6636L60.9385 28.968L60.9532 29.2726L60.9648 29.5772L60.9734 29.882L60.9789 30.1869L60.9814 30.4918L60.9816 30.5889Z" fill="#A6F421"/>
</svg>
