<svg width="75" height="75" viewBox="0 0 75 75" fill="none" xmlns="http://www.w3.org/2000/svg">
<path id="Vector" fill-rule="evenodd" clip-rule="evenodd" d="M61.3035 37.0254L61.3649 37.2639L61.5421 37.506L61.8262 37.7549L62.2093 38.0136L62.6838 38.2848L63.2426 38.5707L63.8783 38.8735L64.5829 39.1949L65.3475 39.5364L66.1624 39.8988L67.0164 40.2824L67.8971 40.6872L68.7906 41.1123L69.6818 41.556L70.5545 42.016L71.3918 42.4891L72.1762 42.9714L72.8905 43.4583L73.5184 43.9447L74.0448 44.425L74.4568 44.8934L74.744 45.3443L74.8992 45.772L74.9187 46.1718L74.8021 46.5392L74.553 46.871L74.1779 47.1647L73.6864 47.4193L73.0908 47.6344L72.4048 47.811L71.6436 47.9509L70.8229 48.0568L69.9585 48.1321L69.0655 48.1804L68.1583 48.2061L67.2501 48.2134L66.3527 48.2067L65.4762 48.1903L64.6293 48.1684L63.8195 48.1449L63.0526 48.1237L62.3331 48.108L61.6646 48.1011L61.0497 48.1059L60.4901 48.125L59.9869 48.161L59.5405 48.2161L59.1511 48.2924L58.8185 48.3919L58.5422 48.5165L58.3215 48.6679L58.1558 48.8481L58.0441 49.0585L57.9854 49.3009L57.9787 49.5769L58.0228 49.8879L58.1165 50.2355L58.2583 50.6208L58.4465 51.0451L58.6792 51.5092L58.9539 52.0138L59.2679 52.5589L59.6178 53.1444L59.9996 53.7691L60.4087 54.4316L60.8394 55.1293L61.2854 55.8585L61.7393 56.6148L62.1929 57.3923L62.6371 58.184L63.0619 58.9814L63.457 59.7752L63.8114 60.5547L64.1143 61.3084L64.355 62.0244L64.5235 62.6902L64.6112 63.2939L64.6107 63.8242L64.5167 64.2709L64.3261 64.6256L64.0383 64.8819L63.6553 65.0361L63.1816 65.0869L62.624 65.0359L61.9915 64.8874L61.2945 64.648L60.5449 64.3266L59.7552 63.934L58.9379 63.4819L58.1058 62.9832L57.2705 62.4509L56.443 61.8982L55.6332 61.3376L54.8497 60.7814L54.0998 60.2407L53.3895 59.7259L52.7238 59.2468L52.1064 58.8119L51.5404 58.4295L51.0281 58.1071L50.5712 57.8522L50.1712 57.6724L49.8296 57.5754L49.5478 57.5698L49.3275 57.6655L49.1674 57.867L49.0599 58.1686L48.998 58.5645L48.9754 59.0492L48.9861 59.6179L49.0246 60.2653L49.0853 60.986L49.1627 61.7736L49.2512 62.6211L49.3451 63.5199L49.4383 64.4603L49.5248 65.431L49.5984 66.4192L49.653 67.4106L49.6825 68.3897L49.6814 69.34L49.6445 70.2444L49.5674 71.0858L49.4467 71.8477L49.28 72.5147L49.0662 73.0733L48.8055 73.5125L48.4993 73.8242L48.1505 74.0034L47.7629 74.0491L47.3414 73.9632L46.8916 73.7514L46.4193 73.422L45.9308 72.9862L45.4324 72.4569L44.9297 71.8484L44.4283 71.1757L43.9329 70.4542L43.4477 69.6986L42.9759 68.9234L42.5202 68.1417L42.0825 67.3654L41.6639 66.6053L41.2651 65.8706L40.886 65.1691L40.5264 64.5074L40.1854 63.891L39.862 63.3242L39.5547 62.8103L39.2623 62.3521L38.9829 61.9515L38.7149 61.61L38.4565 61.3286L38.2059 61.108L37.961 60.9488L37.7202 60.8511L37.4813 60.8153L37.2427 60.8413L37.0023 60.9291L36.7582 61.0785L36.5086 61.2894L36.2515 61.5611L35.9852 61.8931L35.7078 62.2844L35.4175 62.7336L35.1127 63.2387L34.792 63.7973L34.4538 64.4061L34.0972 65.0609L33.7213 65.7564L33.3257 66.4864L32.9102 67.243L32.4754 68.0174L32.0225 68.799L31.5531 69.5761L31.0698 70.3357L30.5758 71.0637L30.0751 71.7452L29.5723 72.3649L29.0728 72.9078L28.5823 73.3595L28.107 73.7065L27.6532 73.9377L27.2268 74.0441L26.8334 74.0197L26.4782 73.8617L26.165 73.5708L25.8969 73.1515L25.6756 72.6112L25.5014 71.9606L25.3735 71.2129L25.2897 70.383L25.2467 69.4875L25.2402 68.5434L25.2652 67.5678L25.3162 66.5773L25.3872 65.5876L25.4721 64.6132L25.5646 63.6672L25.6588 62.761L25.7485 61.9048L25.8281 61.1071L25.8918 60.3753L25.9342 59.7159L25.9497 59.1343L25.9328 58.6358L25.8776 58.2255L25.7778 57.9085L25.6266 57.6906L25.4162 57.578L25.1441 57.5681L24.8119 57.6512L24.4211 57.8184L23.9732 58.0618L23.4696 58.3739L22.912 58.7473L22.3026 59.1743L21.6443 59.647L20.9408 60.1567L20.1969 60.6939L19.4183 61.2484L18.6121 61.8091L17.7868 62.3639L16.9521 62.9003L16.1186 63.4053L15.2982 63.8656L14.5032 64.2686L13.7464 64.602L13.0402 64.8551L12.3967 65.0187L11.8265 65.0856L11.3389 65.0511L10.9411 64.9134L10.638 64.6731L10.4319 64.3337L10.3226 63.9012L10.3075 63.3836L10.3816 62.7908L10.5378 62.1341L10.7677 61.4253L11.0613 60.6768L11.4083 59.9006L11.7976 59.1084L12.2184 58.3108L12.6602 57.5177L13.1129 56.7374L13.5674 55.9773L14.0151 55.2434L14.4487 54.5405L14.8616 53.8722L15.2481 53.2413L15.6034 52.6495L15.9234 52.0979L16.2045 51.5869L16.4441 51.1163L16.6395 50.6858L16.7888 50.2943L16.8902 49.9408L16.9424 49.624L16.9439 49.3426L16.8935 49.0949L16.7903 48.8795L16.6332 48.6947L16.4214 48.5387L16.154 48.41L15.8304 48.3066L15.4501 48.2268L15.0128 48.1684L14.5185 48.1296L13.9678 48.1079L13.3616 48.101L12.7016 48.1062L11.99 48.1207L11.2303 48.1413L10.427 48.1647L9.58563 48.1871L8.7133 48.2046L7.81851 48.2131L6.91127 48.2084L6.00312 48.1859L5.10696 48.1415L4.23699 48.0708L3.4083 47.97L2.63657 47.8357L1.93756 47.6651L1.32653 47.4562L0.81763 47.2079L0.423272 46.9203L0.153516 46.5945L0.0155446 46.2325L0.0132579 45.8377L0.147025 45.4141L0.413618 44.9666L0.80634 44.5005L1.31533 44.0217L1.928 43.5359L2.62965 43.0487L3.40402 42.5654L4.23401 42.0905L5.10225 41.6282L5.99165 41.1818L6.88584 40.7536L7.76951 40.3455L8.62862 39.9584L9.4505 39.5927L10.2238 39.248L10.9386 38.9234L11.5858 38.6177L12.1574 38.3292L12.6458 38.0559L13.0439 37.7954L13.3443 37.5451L13.5391 37.3021L13.6196 37.0632L13.5776 36.825L13.4182 36.5837L13.1506 36.336L12.7828 36.0791L12.3223 35.8101L11.7764 35.5266L11.1525 35.2266L10.4583 34.9083L9.70261 34.5701L8.89503 34.2111L8.04646 33.8308L7.16915 33.4293L6.27671 33.0074L5.38405 32.5666L4.50725 32.109L3.66319 31.6377L2.86922 31.1566L2.14259 30.6701L1.4999 30.1832L0.9564 29.7016L0.525433 29.2309L0.217778 28.7768L0.0411825 28.345L0 27.9405L0.0950096 27.5677L0.323418 27.2301L0.679051 26.9301L1.15271 26.6693L1.73268 26.448L2.40528 26.2653L3.15554 26.1197L3.9678 26.0086L4.8263 25.9287L5.71571 25.8764L6.62151 25.8474L7.53036 25.8374L8.43027 25.8422L9.31075 25.8573L10.1628 25.8786L10.9789 25.9021L11.7531 25.9239L12.4804 25.9407L13.1571 25.9492L13.7807 25.9465L14.3492 25.9298L14.8615 25.8967L15.317 25.8448L15.7154 25.772L16.057 25.6763L16.3423 25.5558L16.5717 25.4088L16.7462 25.2333L16.8664 25.0278L16.9335 24.7906L16.9484 24.5201L16.9123 24.2147L16.8264 23.8731L16.6921 23.4938L16.5112 23.0758L16.2855 22.6181L16.0173 22.12L15.7094 21.5813L15.3649 21.0023L14.9879 20.3837L14.5828 19.727L14.1551 19.0348L13.7111 18.3103L13.2579 17.5579L12.8037 16.7834L12.3574 15.9935L11.9288 15.1963L11.5282 14.4013L11.1666 13.6187L10.8548 12.8601L10.6035 12.1373L10.4228 11.4627L10.3217 10.8483L10.3078 10.3056L10.3867 9.845L10.5618 9.47517L10.8341 9.20282L11.2022 9.03222L11.6619 8.96498L12.2066 8.99997L12.8279 9.13338L13.5154 9.35885L14.2574 9.66782L15.0416 10.0499L15.8553 10.4934L16.6859 10.9855L17.5215 11.5133L18.3509 12.0637L19.1641 12.6238L19.9523 13.1815L20.708 13.7254L21.425 14.2449L22.0981 14.7304L22.7234 15.1729L23.2977 15.5642L23.8187 15.8966L24.2846 16.1627L24.6937 16.355L25.0447 16.4658L25.3361 16.4865L25.5663 16.4077L25.7356 16.2227L25.851 15.9366L25.9197 15.5554L25.9481 15.0844L25.9423 14.5288L25.9079 13.8936L25.8504 13.1842L25.7752 12.4067L25.6881 11.5683L25.5947 10.677L25.501 9.74249L25.413 8.7758L25.3369 7.78949L25.2789 6.79759L25.245 5.81545L25.2408 4.85945L25.2717 3.9466L25.3422 3.09402L25.4557 2.31841L25.615 1.63533L25.8213 1.05863L26.0746 0.599787L26.3737 0.26741L26.7159 0.0668557L27.0976 0L27.5141 0.0652089L27.9599 0.257484L28.429 0.568778L28.9153 0.988449L29.4125 1.50381L29.9149 2.10071L30.4168 2.76419L30.9135 3.47898L31.4006 4.23007L31.8747 5.00307L32.3331 5.78461L32.7738 6.56248L33.1955 7.32583L33.5975 8.06518L33.9796 8.77245L34.3423 9.44084L34.6862 10.0648L35.0124 10.6397L35.3221 11.1622L35.6168 11.6294L35.8981 12.0393L36.1678 12.3903L36.4276 12.6814L36.6794 12.9117L36.925 13.0807L37.1664 13.1882L37.4054 13.2339L37.644 13.2177L37.884 13.1398L38.1273 13.0001L38.3759 12.799L38.6317 12.5369L38.8964 12.2144L39.172 11.8325L39.4601 11.3925L39.7624 10.8961L40.0805 10.3458L40.4158 9.7448L40.7694 9.09702L41.1422 8.40756L41.5347 7.68261L41.947 6.92963L42.3788 6.15743L42.8289 5.3762L43.2958 4.59752L43.7771 3.83422L44.2697 3.10025L44.7696 2.41035L45.2724 1.77974L45.7729 1.22359L46.2652 0.756513L46.7433 0.39197L47.2009 0.141653L47.6321 0.0149124L48.0311 0.018252L48.3927 0.154943L48.7128 0.424793L48.9882 0.824092L49.217 1.34575L49.3987 1.97959L49.5339 2.71284L49.6245 3.53068L49.6738 4.41685L49.6858 5.35438L49.6654 6.32613L49.6181 7.31534L49.5499 8.30616L49.4669 9.28389L49.3751 10.2352L49.2808 11.1484L49.19 12.0132L49.1084 12.8208L49.0418 13.5635L48.9956 14.2349L48.9754 14.8292L48.9868 15.3412L49.0355 15.766L49.1278 16.0982L49.2703 16.3323L49.4708 16.4619L49.7332 16.4875L50.056 16.4186L50.4375 16.2643L50.8764 16.0325L51.3713 15.7308L51.9204 15.3667L52.5217 14.9477L53.1724 14.4817L53.869 13.9773L54.6069 13.4438L55.3804 12.8913L56.1827 12.3309L57.0055 11.7743L57.8395 11.2341L58.6739 10.7232L59.4972 10.2549L60.2971 9.84195L61.0609 9.49666L61.7759 9.2301L62.4302 9.05177L63.0127 8.96912L63.514 8.9872L63.9265 9.10845L64.2449 9.33256L64.4665 9.65651L64.5911 10.0747L64.6209 10.5794L64.5606 11.1609L64.4169 11.8082L64.1982 12.5095L63.914 13.2526L63.5748 14.0251L63.1915 14.8156L62.775 15.6129L62.3358 16.4074L61.8842 17.1902L61.4295 17.954L60.9801 18.6924L60.5438 19.4005L60.1272 20.0745L59.7362 20.7115L59.3756 21.3097L59.0498 21.8677L58.7622 22.3852L58.5159 22.8621L58.3133 23.299L58.1566 23.6967L58.0474 24.0561L57.9873 24.3786L57.9777 24.6656L58.0197 24.9185L58.1144 25.139L58.2628 25.3286L58.4659 25.489L58.7244 25.622L59.039 25.7292L59.4103 25.8127L59.8385 25.8743L60.3237 25.9162L60.8654 25.9404L61.4629 25.9495L62.1145 25.946L62.8181 25.9328L63.5703 25.9129L64.3671 25.8898L65.2028 25.867L66.0707 25.8484L66.9626 25.8382L67.8686 25.8405L68.7774 25.8598L69.6764 25.9005L70.5515 25.9668L71.3878 26.0625L72.1697 26.1913L72.8813 26.356L73.5074 26.5587L74.0334 26.8006L74.4468 27.082L74.7369 27.4018L74.8962 27.7582L74.9202 28.1481L74.808 28.5674L74.5622 29.0115L74.189 29.475L73.6978 29.9521L73.1007 30.4372L72.4121 30.9245L71.6482 31.4088L70.8259 31.8853L69.9626 32.3498L69.0755 32.799L68.181 33.2302L67.2946 33.6416L66.4307 34.0321L65.6021 34.4012L64.8204 34.7492L64.0957 35.0769L63.4371 35.3855L62.853 35.6766L62.3508 35.9522L61.9379 36.2146L61.6214 36.4663L61.4092 36.7103L61.3099 36.9496L61.3035 37.0254Z" fill="#703EF7"/>
</svg>
