<svg width="57" height="62" viewBox="0 0 57 62" fill="none" xmlns="http://www.w3.org/2000/svg">
<path id="Vector" fill-rule="evenodd" clip-rule="evenodd" d="M55.5877 31.0739L55.5894 31.3375L55.5944 31.6013L55.6027 31.8653L55.6143 32.1298L55.6291 32.395L55.6471 32.6608L55.6682 32.9276L55.6924 33.1954L55.7194 33.4643L55.7493 33.7346L55.7818 34.0062L55.8169 34.2795L55.8544 34.5543L55.8941 34.831L55.9359 35.1095L55.9795 35.39L56.0247 35.6725L56.0713 35.9572L56.1191 36.244L56.1678 36.533L56.2171 36.8244L56.2667 37.118L56.3163 37.4139L56.3656 37.7121L56.4143 38.0126L56.462 38.3153L56.5083 38.6202L56.553 38.9273L56.5954 39.2363L56.6354 39.5473L56.6724 39.8601L56.7061 40.1745L56.7359 40.4904L56.7615 40.8076L56.7825 41.1258L56.7983 41.4449L56.8086 41.7646L56.8129 42.0847L56.8107 42.4047L56.8017 42.7245L56.7854 43.0438L56.7614 43.362L56.7293 43.6791L56.6887 43.9944L56.6394 44.3078L56.5809 44.6187L56.5129 44.9268L56.4353 45.2318L56.3476 45.5332L56.2499 45.8305L56.1418 46.1236L56.0233 46.4118L55.8942 46.695L55.7546 46.9726L55.6043 47.2445L55.4435 47.5101L55.2723 47.7694L55.0908 48.0219L54.8991 48.2674L54.6974 48.5057L54.4861 48.7366L54.2654 48.96L54.0357 49.1756L53.7972 49.3835L53.5505 49.5836L53.296 49.7758L53.034 49.9601L52.7651 50.1367L52.4897 50.3055L52.2085 50.4668L51.9218 50.6206L51.6303 50.7671L51.3344 50.9067L51.0347 51.0394L50.7318 51.1656L50.4261 51.2856L50.1183 51.3997L49.8087 51.5082L49.498 51.6115L49.1865 51.7101L48.8748 51.8042L48.5633 51.8943L48.2525 51.9809L47.9427 52.0643L47.6343 52.1451L47.3278 52.2236L47.0234 52.3003L46.7214 52.3758L46.4223 52.4504L46.1261 52.5247L45.8333 52.5992L45.5439 52.6743L45.2583 52.7504L44.9765 52.8283L44.6988 52.9082L44.4253 52.9907L44.1561 53.0764L43.8913 53.1657L43.6311 53.2592L43.3754 53.3574L43.1243 53.4608L42.8779 53.5701L42.6361 53.6856L42.3991 53.8082L42.1667 53.9383L41.9388 54.0762L41.7149 54.2217L41.4945 54.3746L41.277 54.5344L41.0621 54.701L40.8491 54.8739L40.6378 55.053L40.4276 55.2377L40.2182 55.4279L40.0091 55.6231L39.8001 55.8231L39.5907 56.0273L39.3805 56.2354L39.1693 56.4471L38.9568 56.6618L38.7425 56.8791L38.5263 57.0986L38.3078 57.3198L38.0868 57.5421L37.863 57.7651L37.6362 57.9883L37.4063 58.211L37.173 58.4327L36.9362 58.6529L36.6956 58.8709L36.4512 59.0862L36.203 59.2981L35.9507 59.5061L35.6943 59.7095L35.4339 59.9077L35.1694 60.1001L34.9008 60.2862L34.6281 60.4653L34.3515 60.6369L34.071 60.8003L33.7868 60.9551L33.4989 61.1008L33.2076 61.2369L32.913 61.3629L32.6154 61.4784L32.3148 61.5831L32.0118 61.6766L31.7063 61.7587L31.3988 61.829L31.0895 61.8874L30.7788 61.9338L30.4668 61.968L30.154 61.9901L29.8405 62L29.5269 61.9977L29.2132 61.9835L28.9 61.9574L28.5873 61.9196L28.2756 61.8704L27.9651 61.81L27.6561 61.7388L27.3488 61.6572L27.0434 61.5655L26.7402 61.4641L26.4394 61.3535L26.1412 61.2342L25.8457 61.1066L25.553 60.9712L25.2634 60.8286L24.9768 60.6792L24.6934 60.5236L24.4132 60.3622L24.1363 60.1957L23.8627 60.0245L23.5924 59.8492L23.3254 59.6702L23.0617 59.4879L22.8012 59.303L22.5438 59.1159L22.2895 58.9269L22.0382 58.7365L21.7898 58.5452L21.5442 58.3533L21.3012 58.1611L21.0608 57.9691L20.8227 57.7776L20.5869 57.5868L20.3531 57.397L20.1213 57.2086L19.8912 57.0217L19.6627 56.8366L19.4356 56.6536L19.2098 56.4726L18.985 56.2941L18.7611 56.118L18.5379 55.9445L18.3152 55.7738L18.0929 55.6059L17.8707 55.441L17.6485 55.279L17.4261 55.1201L17.2034 54.9642L16.9801 54.8114L16.7561 54.6617L16.5313 54.5151L16.3054 54.3716L16.0784 54.2312L15.85 54.0937L15.6202 53.9592L15.3888 53.8276L15.1556 53.6988L14.9205 53.5727L14.6835 53.4492L14.4443 53.3282L14.203 53.2097L13.9593 53.0934L13.7133 52.9792L13.4648 52.8671L13.2139 52.7567L12.9603 52.648L12.7041 52.5408L12.4453 52.4349L12.1838 52.3301L11.9196 52.2262L11.6528 52.123L11.3834 52.0202L11.1114 51.9177L10.8368 51.8152L10.5598 51.7124L10.2805 51.6092L9.99896 51.5052L9.71531 51.4002L9.42972 51.2939L9.14236 51.186L8.85344 51.0763L8.56317 50.9645L8.27179 50.8502L7.97958 50.7333L7.68681 50.6133L7.3938 50.4901L7.10087 50.3633L6.80839 50.2326L6.51672 50.0979L6.22626 49.9587L5.93743 49.8148L5.65065 49.666L5.36639 49.512L5.08509 49.3525L4.80726 49.1875L4.53336 49.0166L4.2639 48.8396L3.99938 48.6564L3.74032 48.4669L3.48721 48.271L3.24057 48.0684L3.00088 47.8592L2.76864 47.6433L2.54432 47.4207L2.32838 47.1914L2.12125 46.9555L1.92334 46.7129L1.73503 46.4639L1.55669 46.2084L1.38862 45.9468L1.23111 45.6792L1.08439 45.4057L0.948668 45.1267L0.824097 44.8424L0.710785 44.553L0.608794 44.2589L0.518138 43.9605L0.438783 43.658L0.37065 43.3518L0.313609 43.0423L0.267485 42.7298L0.232059 42.4148L0.207068 42.0976L0.192208 41.7785L0.187134 41.4581L0.191467 41.1365L0.204793 40.8143L0.226668 40.4918L0.256619 40.1692L0.294148 39.847L0.338738 39.5254L0.389849 39.2048L0.44693 38.8854L0.509415 38.5675L0.576727 38.2512L0.648286 37.9369L0.723504 37.6247L0.801791 37.3147L0.882559 37.0072L0.96522 36.7022L1.04919 36.3998L1.13388 36.1001L1.21873 35.8031L1.30317 35.5089L1.38664 35.2175L1.46858 34.9288L1.54845 34.6428L1.62571 34.3595L1.69984 34.0787L1.77031 33.8004L1.83661 33.5244L1.89822 33.2506L1.95466 32.9789L2.0054 32.709L2.04995 32.4407L2.08781 32.1739L2.11847 31.9083L2.14144 31.6436L2.1562 31.3795L2.16223 31.1159L2.15909 30.8523L2.14706 30.5884L2.12665 30.3239L2.09838 30.0586L2.06276 29.7922L2.02028 29.5244L1.97146 29.2551L1.91679 28.9839L1.85677 28.7108L1.7919 28.4355L1.72271 28.158L1.64969 27.878L1.57336 27.5955L1.49427 27.3104L1.41293 27.0226L1.32989 26.732L1.2457 26.4387L1.16092 26.1426L1.07611 25.8438L0.991852 25.5422L0.908712 25.2381L0.827277 24.9313L0.748136 24.6221L0.671876 24.3106L0.599088 23.9969L0.530359 23.6813L0.466274 23.3638L0.40741 23.0449L0.354336 22.7246L0.30761 22.4033L0.267775 22.0813L0.235355 21.7588L0.210855 21.4362L0.194756 21.1138L0.187512 20.792L0.189547 20.4712L0.201251 20.1517L0.22298 19.8338L0.255052 19.518L0.297742 19.2047L0.351284 18.8942L0.415868 18.5869L0.491637 18.2832L0.578687 17.9835L0.677067 17.688L0.786778 17.3971L0.907772 17.1111L1.03996 16.8304L1.18319 16.5551L1.33729 16.2856L1.50202 16.022L1.67713 15.7646L1.8623 15.5135L2.05718 15.2689L2.26142 15.0308L2.47461 14.7994L2.69631 14.5746L2.92607 14.3566L3.16344 14.1453L3.40792 13.9406L3.65903 13.7426L3.91625 13.551L4.17908 13.3659L4.44702 13.1869L4.71956 13.0141L4.9962 12.8472L5.27644 12.686L5.55981 12.5303L5.84583 12.3799L6.13406 12.2344L6.42405 12.0938L6.71537 11.9576L7.00764 11.8257L7.30046 11.6977L7.59349 11.5734L7.88637 11.4524L8.17879 11.3345L8.47046 11.2194L8.76111 11.1069L9.05049 10.9965L9.33837 10.8881L9.62454 10.7813L9.90883 10.6759L10.1911 10.5717L10.4711 10.4682L10.7489 10.3653L11.0242 10.2627L11.297 10.1603L11.5673 10.0576L11.8349 9.95456L12.0999 9.85089L12.3623 9.74639L12.6219 9.64085L12.879 9.53407L13.1334 9.42587L13.3852 9.31607L13.6344 9.20449L13.8812 9.09098L14.1256 8.97538L14.3677 8.85756L14.6075 8.73738L14.8452 8.61472L15.0809 8.48948L15.3147 8.36154L15.5467 8.23082L15.777 8.09724L16.0058 7.96073L16.2333 7.82123L16.4595 7.67869L16.6846 7.53309L16.9089 7.3844L17.1323 7.2326L17.3552 7.07772L17.5777 6.91975L17.7999 6.75874L18.0221 6.59472L18.2444 6.42776L18.4669 6.25794L18.6899 6.08535L18.9136 5.91009L19.1381 5.7323L19.3636 5.55211L19.5902 5.36969L19.8183 5.18522L20.0478 4.99889L20.2791 4.81093L20.5122 4.62158L20.7473 4.43109L20.9847 4.23974L21.2243 4.04784L21.4665 3.85571L21.7113 3.66368L21.9588 3.47212L22.2091 3.28141L22.4625 3.09195L22.7188 2.90416L22.9784 2.71847L23.2411 2.53535L23.507 2.35526L23.7763 2.17868L24.0488 2.00611L24.3247 1.83805L24.6038 1.67501L24.8862 1.51752L25.1718 1.36609L25.4604 1.22124L25.7522 1.0835L26.0468 0.953366L26.3442 0.831344L26.6442 0.717922L26.9466 0.613568L27.2513 0.518734L27.558 0.433844L27.8665 0.359298L28.1766 0.295462L28.4879 0.242669L28.8003 0.201214L29.1134 0.171353L29.4269 0.153298L29.7406 0.147217L30.0542 0.153229L30.3672 0.171405L30.6795 0.20177L30.9907 0.244293L31.3005 0.298897L31.6086 0.365454L31.9147 0.443784L32.2186 0.533664L32.5199 0.634818L32.8185 0.746931L33.1141 0.869643L33.4065 1.00255L33.6955 1.14523L33.9809 1.2972L34.2626 1.45796L34.5405 1.627L34.8144 1.80375L35.0843 1.98766L35.3501 2.17814L35.6118 2.37459L35.8695 2.57641L36.123 2.783L36.3726 2.99373L36.6182 3.20801L36.8599 3.42522L37.098 3.64477L37.3324 3.86606L37.5634 4.08852L37.7911 4.31158L38.0158 4.53468L38.2376 4.75729L38.4569 4.97889L38.6738 5.19897L38.8887 5.41704L39.1018 5.63263L39.3134 5.84529L39.5238 6.05459L39.7334 6.26011L39.9426 6.46145L40.1516 6.65822L40.3608 6.85005L40.5707 7.03658L40.7816 7.21748L40.994 7.39241L41.2083 7.56104L41.4249 7.72306L41.6444 7.87817L41.8671 8.02607L42.0937 8.16645L42.3246 8.29903L42.5601 8.42389L42.8004 8.54163L43.0453 8.65282L43.2949 8.75804L43.5491 8.85784L43.8079 8.95276L44.0713 9.04336L44.3391 9.13014L44.6112 9.21362L44.8876 9.29433L45.1681 9.37276L45.4525 9.44941L45.7407 9.52479L46.0325 9.59938L46.3276 9.67367L46.6258 9.74815L46.9269 9.8233L47.2306 9.89959L47.5365 9.9775L47.8443 10.0575L48.1537 10.14L48.4642 10.2255L48.7755 10.3145L49.0872 10.4073L49.3988 10.5044L49.7098 10.6061L50.0198 10.713L50.3283 10.8253L50.6347 10.9433L50.9386 11.0675L51.2393 11.1981L51.5365 11.3355L51.8294 11.4797L52.1177 11.6312L52.4007 11.7901L52.678 11.9565L52.949 12.1306L53.2133 12.3124L53.4703 12.5021L53.7195 12.6997L53.9607 12.9051L54.1932 13.1183L54.4168 13.3392L54.6312 13.5677L54.8359 13.8037L55.0308 14.0469L55.2156 14.2972L55.3901 14.5544L55.5542 14.818L55.7078 15.0879L55.8509 15.3638L55.9833 15.6452L56.1052 15.9319L56.2166 16.2234L56.3176 16.5195L56.4084 16.8196L56.4892 17.1234L56.5603 17.4306L56.6217 17.7407L56.674 18.0533L56.7173 18.3681L56.752 18.6846L56.7786 19.0025L56.7973 19.3215L56.8086 19.6411L56.8129 19.9612L56.8106 20.2812L56.8022 20.6011L56.7881 20.9204L56.7687 21.2389L56.7445 21.5565L56.716 21.8728L56.6835 22.1877L56.6475 22.501L56.6085 22.8126L56.5667 23.1223L56.5228 23.43L56.4769 23.7356L56.4296 24.039L56.3812 24.3402L56.3321 24.6392L56.2825 24.9358L56.2328 25.2302L56.1834 25.5222L56.1345 25.812L56.0864 26.0995L56.0394 26.3848L55.9937 26.668L55.9496 26.9492L55.9072 27.2283L55.8669 27.5055L55.8286 27.781L55.7928 28.0547L55.7594 28.3269L55.7286 28.5975L55.7007 28.8669L55.6756 29.135L55.6535 29.4021L55.6345 29.6682L55.6187 29.9336L55.606 30.1983L55.5967 30.4625L55.5906 30.7263L55.5879 30.9899L55.5877 31.0739Z" fill="#FF6700"/>
</svg>
