<svg width="68" height="62" viewBox="0 0 68 62" fill="none" xmlns="http://www.w3.org/2000/svg">
<g id="Layer_1" clip-path="url(#clip0_22_166)">
<path id="Vector" d="M68 61.8955C63.5433 61.8955 59.5147 59.2508 56.1194 54.1608C53.3046 58.5236 49.7158 61.8955 45.3294 61.8955C40.6968 61.8955 36.9145 58.1307 33.9941 53.416C31.0738 58.1307 27.2915 61.8955 22.6589 61.8955C18.0262 61.8955 14.584 58.4415 11.7399 54.0024C8.5909 58.7934 4.65023 61.8955 -0.0117188 61.8955V56.1604C3.10798 56.1604 6.08694 52.9469 8.56158 48.0504C8.12764 47.0828 7.72302 46.1152 7.34772 45.1711C3.84099 36.2342 1.65368 25.3387 1.65368 16.7303C1.65368 12.1211 2.27528 8.39152 3.49501 5.64713C5.68231 0.733016 9.34737 4.71622e-06 11.3353 4.71622e-06C13.3232 4.71622e-06 16.9062 0.826842 19.0231 6.38014C20.1842 9.4236 20.7999 13.6575 20.7999 18.6244C20.7999 27.8662 18.7768 39.2601 14.9417 48.0386C17.991 53.9438 20.8879 56.1604 22.6706 56.1604C24.4533 56.1604 27.614 53.7561 30.8393 47.3115C30.5226 46.5961 30.2294 45.8865 29.9479 45.1887C26.365 36.2284 24.1425 25.3329 24.1425 16.7479C24.1425 12.1211 24.7817 8.37979 26.0366 5.62953C27.6903 1.99966 30.5226 0.00586881 34.0059 0.00586881C37.4891 0.00586881 40.3156 2.00552 41.9752 5.62953C43.2301 8.38566 43.8693 12.1269 43.8693 16.7479C43.8693 25.3329 41.6468 36.2284 38.0638 45.1887C37.7824 45.8865 37.4891 46.5961 37.1725 47.3115C40.3919 53.762 43.4764 56.1604 45.3412 56.1604C47.1004 56.1604 49.9445 53.9907 52.9352 48.2322C52.6595 47.6106 52.3957 46.9714 52.1376 46.3087C48.971 38.2808 47.0828 28.089 47.0828 19.0407C47.0828 13.9683 47.7103 9.64057 48.8948 6.51501C51.0469 0.83857 54.6944 -0.00585938 56.6765 -0.00585938C58.6585 -0.00585938 62.2767 0.727153 64.4346 5.65299C65.6368 8.39738 66.2467 12.1211 66.2467 16.7185C66.2467 25.3387 64.0828 36.2342 60.5937 45.1535C60.2008 46.1621 59.7668 47.2001 59.2977 48.2439C61.7899 53.0407 64.8099 56.1604 68.0059 56.1604V61.8955H68ZM56.6647 5.73509C55.5505 5.73509 54.7354 7.26561 54.2429 8.55571C53.3046 11.0362 52.8062 14.6602 52.8062 19.0407C52.8062 26.1539 54.0787 33.9414 56.1663 40.5385C58.8286 32.8389 60.494 23.7613 60.494 16.7185C60.494 11.652 59.4912 5.73509 56.6589 5.73509H56.6647ZM11.3294 5.73509C10.8544 5.73509 9.7344 5.73509 8.73751 7.97517C7.85789 9.95723 7.38877 12.9831 7.38877 16.7303C7.38877 23.6733 9.03657 32.6102 11.6637 40.257C13.763 33.5543 15.0531 25.6847 15.0531 18.6244C15.0531 14.3494 14.5723 10.8251 13.6575 8.4267C13.1884 7.20111 12.4026 5.73509 11.3294 5.73509ZM33.9941 5.73509C33.484 5.73509 32.2818 5.73509 31.2439 8.00449C30.3408 9.98069 29.8658 13.0007 29.8658 16.742C29.8658 23.4681 31.4491 32.0883 33.9883 39.6002C36.5333 32.0883 38.1107 23.4681 38.1107 16.742C38.1107 13.0007 37.6357 9.97482 36.7327 8.00449C35.6947 5.73509 34.4985 5.73509 33.9824 5.73509H33.9941Z" fill="#F8F6E9"/>
</g>
<defs>
<clipPath id="clip0_22_166">
<rect width="68" height="61.8955" fill="white"/>
</clipPath>
</defs>
</svg>
