<svg width="68" height="68" viewBox="0 0 68 68" fill="none" xmlns="http://www.w3.org/2000/svg">
<g id="Layer_1" clip-path="url(#clip0_22_55)">
<path id="Vector" d="M6.34459 25.2227H0V10.6132C0 4.76169 4.76169 0 10.6132 0H25.2227V6.34459H10.6132C8.25835 6.34459 6.34459 8.25835 6.34459 10.6132V25.2227Z" fill="#F8F6E9"/>
<path id="Vector_2" d="M25.2227 68H10.6132C4.76169 68 0 63.2383 0 57.3868V42.7773H6.34459V57.3868C6.34459 59.7417 8.25835 61.6554 10.6132 61.6554H25.2227V68Z" fill="#F8F6E9"/>
<path id="Vector_3" d="M68 25.2227H61.6554V10.6132C61.6554 8.25835 59.7417 6.34459 57.3868 6.34459H42.7773V0H57.3868C63.2383 0 68 4.76169 68 10.6132V25.2227Z" fill="#F8F6E9"/>
<path id="Vector_4" d="M57.3868 68H42.7773V61.6554H57.3868C59.7417 61.6554 61.6554 59.7417 61.6554 57.3868V42.7773H68V57.3868C68 63.2383 63.2383 68 57.3868 68Z" fill="#F8F6E9"/>
<g id="Group">
<path id="Vector_5" d="M47.0775 16.4355L16.4348 47.0782L20.9211 51.5645L51.5638 20.9218L47.0775 16.4355Z" fill="#A6F421"/>
<path id="Vector_6" d="M20.9211 16.4356L16.4348 20.9219L47.0775 51.5645L51.5638 47.0782L20.9211 16.4356Z" fill="#A6F421"/>
</g>
</g>
<defs>
<clipPath id="clip0_22_55">
<rect width="68" height="68" fill="white"/>
</clipPath>
</defs>
</svg>
