<svg width="142" height="34" viewBox="0 0 142 34" fill="none" xmlns="http://www.w3.org/2000/svg">
<g id="Isolation_Mode" clip-path="url(#clip0_22_2)">
<path id="Vector" d="M14.9823 13.776L16.7359 10.6795C16.9082 10.377 16.9623 10.0201 16.8914 9.68024L14.8843 0.18689H10.3227L13.1914 13.5007C13.3806 14.3742 14.543 14.5544 14.9823 13.776Z" fill="#F8F6E9"/>
<path id="Vector_2" d="M71.5018 22.644C68.7716 22.644 66.8152 21.3014 66.1631 19.1329C65.9603 18.4633 66.4469 17.7835 67.1463 17.7835H80.287C80.3242 17.3042 80.3614 16.791 80.3614 16.2369C80.3614 13.5857 79.52 11.3764 77.8001 9.57153C76.1174 7.76667 73.9211 6.88293 71.2484 6.88293C68.4303 6.88293 66.1225 7.76667 64.2945 9.57153C62.5003 11.3764 61.5846 13.7319 61.5846 16.6788V16.825C61.5846 19.7345 62.5003 22.0526 64.2945 23.7827C66.0887 25.5127 68.4675 26.3965 71.3599 26.3965C74.4719 26.3965 77.0331 25.2918 79.1213 23.0825L76.4857 20.506C75.0564 21.9404 73.4109 22.6406 71.5085 22.6406L71.5018 22.644ZM67.6937 11.8183C68.6804 11.0467 69.89 10.6388 71.245 10.6388C72.5256 10.6388 73.5866 11.0433 74.5023 11.8556C75.418 12.6272 75.8944 13.5857 75.8944 14.6904H66.0482C66.1563 13.5483 66.7071 12.5932 67.6937 11.8183Z" fill="#F8F6E9"/>
<path id="Vector_3" d="M90.4239 15.0235C89.6906 14.7652 88.6668 14.3981 88.116 14.252C87.6396 14.0684 86.9098 13.7727 86.6158 13.5892C86.1022 13.2595 85.7744 12.9264 85.7744 12.301C85.7744 11.3085 86.653 10.6423 88.0079 10.6423C89.5825 10.6423 90.7888 11.1589 91.5964 12.1888L94.0495 9.57498C92.6573 7.77012 90.6807 6.849 88.0823 6.849C86.2509 6.849 84.7135 7.36564 83.4328 8.35815C82.1894 9.35065 81.5677 10.6763 81.5677 12.4097C81.5677 15.0609 83.1422 16.5701 86.1056 17.6374C86.7273 17.8957 87.8255 18.2254 88.3762 18.4089C88.927 18.5925 89.694 18.8508 90.0961 19.1091C90.7178 19.4388 91.1571 19.9555 91.1571 20.5809C91.1571 21.7229 90.1704 22.6067 87.8626 22.6067C85.5548 22.6067 83.8349 21.6142 82.9936 20.2886L80.1755 22.6815C81.348 25.003 84.0917 26.4373 87.7883 26.4373C92.8026 26.4373 95.3639 23.9697 95.3639 20.5469C95.3639 17.8957 93.8265 16.2404 90.4239 15.0235Z" fill="#F8F6E9"/>
<path id="Vector_4" d="M100.747 7.39954H96.3539V25.958H100.747V7.39954Z" fill="#F8F6E9"/>
<path id="Vector_5" d="M98.5502 0C97.0871 0 95.9146 1.14206 95.9146 2.61382C95.9146 4.08557 97.0871 5.22763 98.5502 5.22763C100.013 5.22763 101.149 4.08557 101.149 2.61382C101.149 1.14206 99.9761 0 98.5502 0Z" fill="#F8F6E9"/>
<path id="Vector_6" d="M135.006 7.03247C132.37 7.03247 130.285 8.24931 129.407 10.0508V7.39956H125.051L124.446 25.958H128.802L129.407 15.2784C129.407 12.7394 131.201 10.9719 133.688 10.9719C136.175 10.9719 137.604 12.5558 137.604 15.0949V25.958H141.997V14.4694C141.997 9.86722 139.398 7.03247 135.006 7.03247Z" fill="#F8F6E9"/>
<path id="Vector_7" d="M117.766 10.0882C117.175 8.3785 115.137 7.13108 112.336 7.00531C112.184 6.99852 112.029 6.99512 111.873 6.99512C109.275 6.99512 107.116 7.91624 105.322 9.79248C103.531 11.6347 102.649 13.9188 102.649 16.604C102.649 19.2892 103.527 21.5733 105.284 23.3782C107.075 25.1831 109.275 26.1042 111.873 26.1042C112.063 26.1042 112.252 26.1008 112.434 26.0872C114.029 26.0056 115.377 25.5773 116.378 24.9247C116.851 24.6154 117.479 24.9689 117.486 25.5366L117.509 27.9566C117.509 29.0613 116.705 29.9076 115.607 29.9076C113.924 29.9076 112.678 27.7357 109.86 27.7357C106.383 27.7357 104.845 30.3495 104.845 33.7757H108.616C108.616 32.6336 109.42 31.8247 110.518 31.8247C112.201 31.8247 113.448 33.9966 116.266 33.9966C119.743 33.9966 121.28 31.3828 121.28 27.9566L122.159 7.3962H117.766V10.0848V10.0882ZM116.448 20.6216C115.387 21.6889 114.033 22.2056 112.458 22.2056C110.883 22.2056 109.603 21.6923 108.542 20.6216C107.518 19.5543 107.004 18.1914 107.004 16.6074C107.004 15.0235 107.518 13.6979 108.542 12.6306C109.603 11.5633 110.887 11.0093 112.458 11.0093C114.029 11.0093 115.387 11.5633 116.448 12.6306C117.547 13.7013 118.097 15.0235 118.097 16.6074C118.097 18.1914 117.547 19.5543 116.448 20.6216Z" fill="#F8F6E9"/>
<path id="Vector_8" d="M32.2925 10.5165C33.9415 10.5165 35.0802 11.1453 35.7391 12.4335L38.6348 9.99985C37.4623 7.97065 35.114 6.71643 32.3297 6.71643C30.4612 6.71643 28.846 7.27046 27.562 8.41252C26.278 9.55458 25.6191 10.8836 25.6191 12.4335C25.6191 14.5375 26.866 16.2336 29.3224 17.4504C30.0557 17.7835 31.3397 18.3341 31.9242 18.6299C32.2554 18.742 32.546 18.9256 32.8771 19.1091C33.4988 19.5136 33.7928 19.9215 33.7928 20.4007C33.7928 21.5428 32.546 22.5013 30.6774 22.5013C28.2581 22.5013 26.572 21.5428 25.6529 19.6597L22.5004 21.8725C23.71 24.6393 26.5686 26.3353 30.3834 26.3353C32.6575 26.3353 34.4888 25.7439 35.9215 24.6019C37.3508 23.4224 38.0469 21.9847 38.0469 20.3225C38.0469 17.9976 36.7257 16.2642 34.1239 15.0847C33.6475 14.9012 32.6203 14.4219 32.181 14.2724C31.7789 14.0888 31.0457 13.7183 30.7517 13.5348C30.201 13.0929 29.836 12.7598 29.836 12.2058C29.836 11.322 30.8261 10.5097 32.2925 10.5097V10.5165Z" fill="#F8F6E9"/>
<path id="Vector_9" d="M58.3341 0.152954L56.3912 9.70409C55.6951 8.22893 53.2758 6.86254 49.9002 6.86254C47.0045 6.86254 44.5108 7.93322 42.3855 10.1086C40.2601 12.2465 39.1957 14.755 39.1957 17.6679C39.1957 20.2137 40.0033 22.2769 41.6151 23.8642C43.264 25.4516 45.2812 26.2231 47.7377 26.2231C50.4882 26.2231 52.4682 25.2646 53.6779 23.3816L53.1643 25.8526H57.4893L62.6963 0.152954H58.3341ZM53.4583 20.3633C52.1743 21.6175 50.6335 22.2429 48.8392 22.2429C45.7239 22.2429 43.6323 20.2137 43.6323 17.3008C43.6323 15.6047 44.254 14.0922 45.5008 12.8006C46.7477 11.5089 48.2513 10.8461 50.0117 10.8461C53.2386 10.8461 55.4011 12.7632 55.4011 15.5299C55.4011 17.4844 54.7423 19.1091 53.4583 20.3599V20.3633Z" fill="#F8F6E9"/>
<path id="Vector_10" d="M25.3353 0.18689L14.2084 19.8262C13.188 21.4203 12.5663 21.9981 11.2688 22.0287C9.50496 22.0661 8.20407 19.7548 5.25087 19.7548C1.61175 19.7548 0 22.4944 0 26.0803H3.9466C3.9466 24.8839 4.79134 24.0375 5.94018 24.0375C6.54163 24.0375 7.08902 24.2993 7.66344 24.6493C8.78187 25.3223 10.0118 26.3115 11.9581 26.3115C13.7726 26.3115 15.2086 25.2442 16.0635 24.1225C16.1175 24.0477 30.2787 0.193688 30.2787 0.193688H25.3353V0.18689Z" fill="#F8F6E9"/>
</g>
<defs>
<clipPath id="clip0_22_2">
<rect width="142" height="34" fill="white"/>
</clipPath>
</defs>
</svg>
